<?xml version="1.0" encoding="utf-8"?>
<!-- Generator: Adobe Illustrator 24.3.2, SVG Export Plug-In . SVG Version: 6.00 Build 0)  -->
<svg version="1.1" id="Layer_1" xmlns="http://www.w3.org/2000/svg" xmlns:xlink="http://www.w3.org/1999/xlink" x="0px" y="0px"
	 viewBox="0 0 68.43 68.43" style="enable-background:new 0 0 68.43 68.43;" xml:space="preserve">
<style type="text/css">
	.st0{fill:#FFFFFF;}
</style>
<g id="wkgdaw_1_">
	<g>
		<g>
			<path class="st0" d="M13.2,46.58c0-2.83,0.01-5.65-0.01-8.48c0-0.39,0.13-0.64,0.43-0.89c6.68-5.5,13.36-11.01,20.04-16.51
				c0.65-0.53,0.44-0.53,1.08,0c6.69,5.51,13.38,11.03,20.08,16.54c0.27,0.22,0.4,0.45,0.4,0.81c-0.01,5.65-0.01,11.31-0.01,16.96
				c0,1.6-0.98,2.58-2.58,2.59c-4.42,0.01-8.83,0-13.25,0.01c-0.41,0-0.5-0.14-0.5-0.52c0.01-4.3,0-8.61,0.02-12.91
				c0-0.47-0.13-0.59-0.59-0.58c-2.73,0.02-5.46,0.02-8.19,0c-0.45,0-0.6,0.1-0.59,0.58c0.02,4.27,0,8.54,0.02,12.82
				c0,0.46-0.08,0.63-0.6,0.63c-4.35-0.02-8.71-0.01-13.06-0.01c-1.73,0-2.68-0.95-2.69-2.68C13.2,52.14,13.2,49.36,13.2,46.58z"/>
			<path class="st0" d="M45.88,19.07c0-1.98,0-3.92,0-5.86c0-0.35-0.01-0.71,0.01-1.06c0.04-0.79,0.44-1.23,1.24-1.24
				c2.28-0.02,4.56-0.03,6.84,0c0.86,0.01,1.25,0.49,1.25,1.43c0,4.71,0,9.41-0.01,14.12c0,0.35,0.09,0.59,0.37,0.82
				c2.37,1.95,4.72,3.91,7.08,5.87c0.16,0.13,0.33,0.26,0.48,0.4c0.55,0.51,0.63,1.13,0.17,1.71c-0.71,0.89-1.44,1.77-2.2,2.62
				c-0.53,0.6-1.18,0.6-1.83,0.05c-2.8-2.33-5.6-4.67-8.4-7c-5.43-4.52-10.86-9.05-16.27-13.58c-0.31-0.26-0.49-0.25-0.79,0
				c-5.42,4.53-10.85,9.06-16.27,13.58c-2.79,2.32-5.57,4.65-8.36,6.97c-0.74,0.62-1.38,0.56-2-0.17s-1.24-1.47-1.86-2.22
				c-0.72-0.87-0.68-1.44,0.19-2.17c3.97-3.31,7.94-6.62,11.92-9.93c4.48-3.73,8.97-7.44,13.42-11.2c1.39-1.18,2.87-1.71,4.66-1.23
				c0.61,0.16,1.15,0.49,1.63,0.9c2.75,2.3,5.5,4.59,8.25,6.89C45.52,18.88,45.62,19.04,45.88,19.07z"/>
		</g>
	</g>
</g>
</svg>
