<?xml version="1.0" encoding="utf-8"?>
<!-- Generator: Adobe Illustrator 24.3.2, SVG Export Plug-In . SVG Version: 6.00 Build 0)  -->
<svg version="1.1" id="Layer_1" xmlns="http://www.w3.org/2000/svg" xmlns:xlink="http://www.w3.org/1999/xlink" x="0px" y="0px"
	 viewBox="0 0 68.43 68.43" style="enable-background:new 0 0 68.43 68.43;" xml:space="preserve">
<style type="text/css">
	.path-st0{fill:#05B795;}
</style>
<path class="path-st0" d="M53.3,47.05c-1-1.06-2.03-2.09-3.09-3.09c-0.48-0.46-0.68-0.94-0.68-1.61c0.03-4.4,0.04-8.81,0.01-13.21
	c-0.05-7.33-4.96-13.43-12.1-15.03c-0.56-0.13-1.13-0.22-1.76-0.34c0-1.06,0.02-2.06-0.01-3.06C35.65,9.65,35.06,8.99,34.2,9
	c-0.85,0.01-1.42,0.67-1.44,1.72c-0.02,1,0,1.99,0,3.02c-0.3,0.07-0.52,0.14-0.73,0.17c-6.93,0.92-13.32,7.06-13.15,15.82
	c0.08,4.21,0.04,8.42-0.01,12.63c-0.01,0.51-0.27,1.12-0.61,1.51c-0.97,1.09-2.05,2.07-3.06,3.12c-1.09,1.12-1.45,3.43-0.77,4.91
	c0.71,1.55,2.02,2.06,3.65,2.05c2.88-0.03,5.77,0.02,8.65-0.02c0.71-0.01,1.06,0.14,1.29,0.89c0.83,2.75,3.35,4.58,6.18,4.6
	c2.85,0.02,5.42-1.82,6.27-4.62c0.21-0.7,0.53-0.88,1.21-0.87c2.98,0.03,5.96,0.01,8.94,0.02c1.32,0,2.42-0.42,3.17-1.55
	C54.71,50.96,54.5,48.31,53.3,47.05z M34.03,56.49c-1.54-0.11-2.82-1.11-3.09-2.49c0.29-0.02,0.57-0.05,0.85-0.05
	c1.9,0,3.79,0,5.78,0C37.01,55.63,35.58,56.59,34.03,56.49z"/>
</svg>
