<?xml version="1.0" encoding="utf-8"?>
<!-- Generator: Adobe Illustrator 24.3.2, SVG Export Plug-In . SVG Version: 6.00 Build 0)  -->
<svg version="1.1" id="Layer_1" xmlns="http://www.w3.org/2000/svg" xmlns:xlink="http://www.w3.org/1999/xlink" x="0px" y="0px"
	 viewBox="0 0 68.43 68.43" style="enable-background:new 0 0 68.43 68.43;" xml:space="preserve">
<style type="text/css">
	.st0{fill:#FFFFFF;}
</style>
<g id="PV6jPV_1_">
	<g>
		<g>
			<g>
				<path class="st0" d="M16.07,35.8c0-5.76-0.01-11.52,0-17.27c0-1.71,0.31-2.03,2-2.03c6.91-0.01,13.82,0.01,20.73-0.02
					c0.87,0,1.37,0.07,1.36,1.18c-0.01,1.05-0.31,1.36-1.36,1.35c-6.26-0.04-12.52,0.01-18.78-0.05c-1.17-0.01-1.52,0.29-1.51,1.49
					c0.05,10.21,0.05,20.43,0,30.64c-0.01,1.18,0.31,1.49,1.49,1.49c10.21-0.05,20.43-0.02,30.64-0.03c2.14,0,2.99-0.83,2.99-3
					c0.02-4.96,0.02-9.91-0.01-14.87c0-0.93-0.03-1.59,1.29-1.58c1.25,0.01,1.19,0.63,1.19,1.5c-0.02,5.06,0,10.11-0.01,15.17
					c0,3.27-1.91,5.23-5.21,5.23c-10.97,0.02-21.93-0.01-32.9,0.03c-1.43,0-1.94-0.55-1.93-1.96C16.1,47.32,16.07,41.56,16.07,35.8z
					"/>
				<path class="st0" d="M57.38,23.04c0.08,1.4-0.48,2.55-1.44,3.51c-5.55,5.56-11.1,11.12-16.66,16.67
					c-0.32,0.32-0.65,0.58-1.12,0.7c-3.48,0.89-6.95,1.82-10.43,2.73c-1.61,0.42-2.35-0.25-1.93-1.85
					c0.88-3.38,1.82-6.74,2.73-10.12c0.18-0.66,0.6-1.13,1.07-1.6c5.35-5.34,10.68-10.69,16.04-16.02c2.56-2.55,5.26-2.52,7.87,0.06
					c0.82,0.81,1.65,1.61,2.44,2.44C56.88,20.52,57.48,21.65,57.38,23.04z M51.5,27.42c-0.17-0.2-0.28-0.36-0.42-0.5
					c-1.8-1.8-3.62-3.59-5.39-5.42c-0.57-0.59-0.83-0.16-1.17,0.18c-4.06,4.06-8.12,8.14-12.21,12.18
					c-0.56,0.56-0.56,0.88,0.01,1.43c1.69,1.63,3.36,3.29,4.99,4.98c0.54,0.56,0.86,0.58,1.42,0.01c4.04-4.09,8.12-8.14,12.18-12.2
					C51.11,27.88,51.29,27.66,51.5,27.42z M49.49,17.68c-0.9-0.09-1.54,0.55-2.17,1.2c-0.36,0.38-0.11,0.61,0.15,0.87
					c1.8,1.8,3.61,3.6,5.41,5.41c0.29,0.29,0.5,0.35,0.88,0.08c1.24-0.89,1.61-2.56,0.62-3.67c-1.06-1.2-2.24-2.28-3.38-3.4
					C50.62,17.81,50.14,17.67,49.49,17.68z M28.66,43.84c2.41-0.66,4.51-1.23,6.3-1.72c-1.5-1.55-3.02-3.13-4.57-4.73
					C29.85,39.4,29.29,41.49,28.66,43.84z"/>
				<path class="st0" d="M46.64,27.64c-0.21,0.23-0.4,0.46-0.61,0.67c-2.16,2.16-4.36,4.27-6.45,6.5c-0.81,0.86-1.12,0.24-1.6-0.22
					c-0.51-0.49-1.01-0.82-0.18-1.6c2.23-2.09,4.33-4.3,6.51-6.44c0.27-0.27,0.53-0.91,1.06-0.37
					C45.81,26.62,46.39,26.96,46.64,27.64z"/>
			</g>
		</g>
	</g>
</g>
</svg>
