<?xml version="1.0" encoding="utf-8"?>
<!-- Generator: Adobe Illustrator 24.3.1, SVG Export Plug-In . SVG Version: 6.00 Build 0)  -->
<svg version="1.1" id="Layer_1" xmlns="http://www.w3.org/2000/svg" xmlns:xlink="http://www.w3.org/1999/xlink" x="0px" y="0px"
	 viewBox="0 0 68.43 68.43" style="enable-background:new 0 0 68.43 68.43;" xml:space="preserve">
<style type="text/css">
	.st0{fill:#05B795;}
	.st1{fill:#FFFFFF;}
	.st2{opacity:0.65;}
	.st3{fill:#4D5055;}
</style>
<g>
	<path class="st1" d="M36.87,26.41c1.69-0.87,2.16-1.87,1.96-3.19c-0.26-1.71,0.52-2.25,2.15-2.12c1.45,0.11,2.91,0.06,4.37,0.01
		c1.15-0.04,1.73,0.46,1.55,1.57c-0.28,1.81,0.66,2.94,1.87,4.07c1.81,1.68,3.47,3.52,5.27,5.21c0.81,0.76,1.09,1.58,1.09,2.67
		c-0.04,6.4,0,12.8-0.02,19.2c0,1.09-0.05,2.08,1.51,1.93c0.47-0.05,0.96,0.23,0.94,0.73c-0.02,0.62-0.59,0.76-1.13,0.76
		c-1.27,0-2.53-0.01-3.8-0.01c-13.05,0-26.1,0.01-39.15,0.01c-0.57,0-1.14,0-1.71-0.03c-0.39-0.02-0.78-0.17-0.85-0.61
		c-0.07-0.44,0.17-0.78,0.6-0.82c1.33-0.1,0.97-1.09,0.97-1.84c0.01-9.57,0.03-19.13-0.02-28.7c-0.01-1.43,0.31-2.51,1.41-3.49
		c1.79-1.61,3.38-3.43,5.15-5.06c1.13-1.05,1.93-2.12,1.67-3.76c-0.19-1.2,0.39-1.73,1.63-1.69c1.65,0.06,3.29,0.04,4.94,0
		c1.14-0.03,1.7,0.47,1.51,1.59c-0.3,1.72,0.54,2.84,1.73,3.92c1.41,1.27,2.67,2.7,4.06,4C36.11,22.19,37.69,23.6,36.87,26.41z
		 M15.38,22.38c0.09,0.15,0.18,0.29,0.28,0.44c2.28,0,4.55-0.01,6.83,0.01c0.55,0,1.29-0.07,1.26,0.75
		c-0.03,0.79-0.75,0.7-1.31,0.71c-2.28,0.01-4.56,0.06-6.84-0.02c-1.19-0.04-1.66,0.27-1.65,1.56c0.05,9.43,0.05,18.87,0,28.3
		c-0.01,1.25,0.39,1.63,1.62,1.61c4.43-0.06,8.86-0.07,13.3,0c1.32,0.02,1.75-0.37,1.73-1.71c-0.07-5.44,0.19-10.9-0.11-16.33
		c-0.18-3.35,0.65-5.91,3.35-7.85c1.44-1.03,1.79-2.41,1.71-4.13c-0.06-1.21-0.48-1.5-1.59-1.46c-2.02,0.07-4.05,0.03-6.08,0.01
		c-0.55,0-1.27,0.1-1.26-0.75c0.01-0.86,0.76-0.69,1.29-0.7c1.99-0.02,3.99-0.01,5.98-0.01c0.08-0.16,0.17-0.32,0.25-0.49
		c-1.92-1.88-3.84-3.76-5.78-5.63c-0.61-0.58-1.2-1.15-1.04-2.1c0.26-1.55-0.47-2.04-1.91-1.87c-0.62,0.07-1.27,0.05-1.9,0
		c-0.97-0.08-1.46,0.28-1.31,1.29c0.19,1.28-0.47,2.12-1.35,2.95C19,18.74,17.2,20.57,15.38,22.38z M52.02,32.7
		c0.08-0.16,0.17-0.32,0.25-0.48c-1.92-1.87-3.83-3.76-5.76-5.62c-0.6-0.58-1.24-1.15-1.1-2.08c0.25-1.71-0.63-2.07-2.09-1.9
		c-0.56,0.07-1.14,0.05-1.71,0.01c-0.96-0.06-1.48,0.31-1.31,1.31c0.21,1.29-0.45,2.12-1.32,2.94c-1.87,1.74-3.69,3.53-5.54,5.3
		c0.1,0.17,0.2,0.35,0.3,0.52c2.31,0,4.62,0,6.93,0c0.5,0,1.09-0.07,1.17,0.64c0.06,0.54-0.29,0.79-0.81,0.83
		c-0.86,0.06-0.74,0.71-0.74,1.26c-0.01,6.26,0.02,12.52-0.03,18.79c-0.01,1.18,0.44,1.53,1.56,1.51c3.48-0.05,6.96-0.05,10.44,0
		c1.08,0.01,1.4-0.39,1.4-1.44c-0.04-6.26-0.04-12.52,0.01-18.79c0.01-1.15-0.49-1.37-1.48-1.35c-1.96,0.05-3.92,0.03-5.88,0
		c-0.65-0.01-1.62,0.24-1.59-0.79c0.02-0.89,0.93-0.64,1.52-0.65C48.16,32.68,50.09,32.7,52.02,32.7z M32.09,44.7
		c0,3.23,0,6.46,0,9.69c0,0.62-0.1,1.31,0.9,1.3c1-0.01,0.88-0.69,0.88-1.32c0-6.27,0.01-12.54-0.01-18.8
		c0-0.57,0.25-1.34-0.79-1.39c-1.12-0.06-0.99,0.73-0.99,1.41C32.08,38.62,32.09,41.66,32.09,44.7z M38.82,53.37
		c0-0.3-0.01-0.49,0-0.67c0.06-1.19,0.14-2.14-1.67-2.15c-1.87-0.01-1.91,0.92-1.81,2.23c0.02,0.31,0.04,0.64,0,0.95
		c-0.24,1.58,0.43,2.03,2,2.04C39.52,55.77,38.61,54.25,38.82,53.37z M37.23,42.61c0.65-0.14,1.65,0.26,1.57-1.02
		c-0.08-1.26-1.07-0.82-1.73-0.83c-0.67-0.01-1.68-0.37-1.69,0.88C35.38,43.04,36.52,42.41,37.23,42.61z M37.02,39.27
		c0.62-0.24,1.8,0.52,1.78-0.94c-0.02-1.27-1.05-0.84-1.69-0.84c-0.66-0.01-1.66-0.39-1.73,0.84
		C35.31,39.63,36.35,39.12,37.02,39.27z M36.99,49.16c0.57-0.3,1.74,0.56,1.81-0.87c0.06-1.26-0.95-0.95-1.61-0.92
		c-0.7,0.03-1.81-0.44-1.8,0.95C35.39,49.47,36.33,49,36.99,49.16z M37.21,45.88c0.5-0.3,1.61,0.41,1.59-0.93
		c-0.02-1.43-1.16-0.83-1.84-0.87c-0.65-0.04-1.67-0.38-1.58,0.92C35.47,46.27,36.49,45.66,37.21,45.88z M37.21,35.99
		c0.49-0.27,1.55,0.37,1.58-0.91c0.04-1.29-0.97-0.91-1.61-0.88c-0.68,0.03-1.83-0.52-1.79,0.89
		C35.44,36.31,36.47,35.81,37.21,35.99z"/>
	<path class="st1" d="M51.86,47.28c0,1.77,0.01,3.54-0.01,5.31c-0.01,0.56,0,1.27-0.79,1.26c-0.64-0.01-0.71-0.63-0.71-1.14
		c-0.01-3.54-0.02-7.08-0.01-10.61c0-0.53,0.12-1.09,0.79-1.07c0.68,0.03,0.71,0.63,0.71,1.14c0.02,1.71,0.01,3.41,0.01,5.12
		C51.85,47.28,51.86,47.28,51.86,47.28z"/>
</g>
</svg>
