<?xml version="1.0" encoding="utf-8"?>
<!-- Generator: Adobe Illustrator 24.3.1, SVG Export Plug-In . SVG Version: 6.00 Build 0)  -->
<svg version="1.1" id="Layer_1" xmlns="http://www.w3.org/2000/svg" xmlns:xlink="http://www.w3.org/1999/xlink" x="0px" y="0px"
	 viewBox="0 0 68.43 68.43" style="enable-background:new 0 0 68.43 68.43;" xml:space="preserve">
<style type="text/css">
	.st0{fill:#05B795;}
	.st1{fill:#FFFFFF;}
	.st2{opacity:0.65;}
	.st3{fill:#4D5055;}
</style>
<g>
	<g>
		<path class="st1" d="M19.83,50.27l3.46-7.78c3.3,2.19,7.99,3.68,12.31,3.68c4.37,0,6.07-1.23,6.07-3.04
			c0-5.92-21.2-1.6-21.2-15.45c0-6.66,5.43-12.09,16.52-12.09c4.85,0,9.86,1.12,13.53,3.25l-3.25,7.83
			c-3.57-1.92-7.09-2.88-10.34-2.88c-4.42,0-6.02,1.49-6.02,3.36c0,5.7,21.15,1.44,21.15,15.18c0,6.5-5.43,12.04-16.52,12.04
			C29.42,54.37,23.34,52.72,19.83,50.27z"/>
	</g>
	<g>
		<rect x="33.87" y="7.33" class="st1" width="3.38" height="11.83"/>
	</g>
	<g>
		<rect x="33.87" y="49.58" class="st1" width="3.38" height="11.83"/>
	</g>
</g>
</svg>
