<?xml version="1.0" encoding="utf-8"?>
<!-- Generator: Adobe Illustrator 24.3.2, SVG Export Plug-In . SVG Version: 6.00 Build 0)  -->
<svg version="1.1" id="Layer_1" xmlns="http://www.w3.org/2000/svg" xmlns:xlink="http://www.w3.org/1999/xlink" x="0px" y="0px"
	 viewBox="0 0 68.43 68.43" style="enable-background:new 0 0 68.43 68.43;" xml:space="preserve">
<style type="text/css">
	.st0{fill:#FFFFFF;}
</style>
<g>
	<g id="_x38_po3y7_2_">
		<g>
			<g>
				<g>
					<path class="st0" d="M21.18,9.34c-0.79,0.29-1.6,0.53-2.3,1.05c-1.48,1.11-2.34,2.54-2.36,4.4c-0.03,3.4-0.01,6.8-0.01,10.28
						c0.56-0.47,1.08-0.9,1.59-1.34c0.7-0.6,1.4-1.22,2.11-1.81c0.19-0.16,0.19-0.35,0.19-0.56c0-2.06,0-4.11,0-6.17
						c0-1.14,0.81-1.96,1.96-1.96c8.86,0,17.71,0,26.57,0c1.17,0,1.98,0.81,1.98,1.98c0,12.66-0.01,25.32,0.01,37.98
						c0,1.11-0.9,2.02-2.02,2.01c-8.84-0.02-17.68-0.02-26.52,0c-1.09,0-2-0.89-1.99-2c0.03-2.02,0-4.05,0.01-6.07
						c0-0.33-0.09-0.52-0.37-0.75c-0.85-0.67-1.65-1.42-2.47-2.14c-0.32-0.28-0.65-0.57-1-0.87c-0.1,0.17-0.05,0.35-0.05,0.51
						c0,3.29-0.01,6.57,0,9.86c0.01,1.2,0.47,2.26,1.21,3.19c0.87,1.09,1.99,1.79,3.37,2.07c0.22,0.05,0.44,0.07,0.66,0.07
						c9.23,0,18.46,0,27.68,0c1.21,0,2.25-0.48,3.19-1.2c1.2-0.93,1.86-2.17,2.14-3.65c0.03-0.14,0.01-0.29,0.01-0.44
						c0-13.05,0-26.1-0.01-39.15c0-1.2-0.49-2.24-1.22-3.18c-0.88-1.14-2.1-1.73-3.44-2.12C40.48,9.34,30.83,9.34,21.18,9.34z"/>
					<path class="st0" d="M35.77,40.04c1.75,0,3.5,0.01,5.24-0.01c0.55-0.01,1.11-0.05,1.57-0.44c0.43-0.36,0.74-0.78,0.74-1.36
						c0-2.69,0-5.37,0-8.06c0-0.78-0.8-1.61-1.58-1.7c-1.68-0.19-3.35-0.06-5.03-0.08c-2.09-0.03-4.18-0.02-6.26,0
						c-0.41,0-0.55-0.07-0.54-0.52c0.03-1.55,0.01-3.11,0.01-4.66c0-1.09-0.67-1.67-1.75-1.54c-0.27,0.03-0.42,0.24-0.59,0.38
						c-0.85,0.7-1.66,1.45-2.5,2.18c-1.1,0.95-2.21,1.89-3.31,2.84c-0.8,0.69-1.59,1.39-2.38,2.09c-1.15,0.99-2.31,1.97-3.45,2.97
						c-0.72,0.63-1.42,1.29-2.18,1.88c-0.19,0.15-0.17,0.28,0.01,0.42c1.48,1.22,2.92,2.49,4.35,3.76c1.17,1.04,2.37,2.05,3.55,3.08
						c1.73,1.5,3.44,3.01,5.19,4.49c0.3,0.25,0.58,0.54,0.91,0.77c0.67,0.45,1.63,0.2,1.94-0.55c0.14-0.34,0.21-0.69,0.21-1.07
						c-0.02-1.46,0.01-2.91-0.02-4.37c-0.01-0.42,0.12-0.5,0.51-0.49C32.21,40.05,33.99,40.04,35.77,40.04z"/>
				</g>
			</g>
		</g>
	</g>
</g>
</svg>
