<?xml version="1.0" encoding="utf-8"?>
<!-- Generator: Adobe Illustrator 24.3.2, SVG Export Plug-In . SVG Version: 6.00 Build 0)  -->
<svg version="1.1" id="Layer_1" xmlns="http://www.w3.org/2000/svg" xmlns:xlink="http://www.w3.org/1999/xlink" x="0px" y="0px"
	 viewBox="0 0 68.43 68.43" style="enable-background:new 0 0 68.43 68.43;" xml:space="preserve">
<style type="text/css">
	.st0{fill:#FFFFFF;}
</style>
<path class="st0" d="M34.21,9.56C20.6,9.56,9.56,20.6,9.56,34.21c0,13.61,11.04,24.65,24.65,24.65c13.61,0,24.65-11.04,24.65-24.65
	C58.86,20.6,47.82,9.56,34.21,9.56z M33.68,50.89c-2.11,0-3.85-1.75-3.83-3.86c0.02-2.1,1.74-3.81,3.83-3.82
	c2.12,0.01,3.84,1.72,3.84,3.85S35.81,50.9,33.68,50.89z M42.63,31.92c-1.07,2-2.7,3.55-4.49,4.89c-1.33,1-1.88,2.25-1.82,3.86
	c0.03,0.62,0,0.62-0.64,0.62c-0.64-0.01-1.28-0.01-1.92-0.01c-0.75,0-1.5,0-2.24,0c-0.19,0-0.31-0.01-0.31-0.26
	c-0.07-2.8,0.59-5.33,2.71-7.31c0.7-0.65,1.47-1.24,2.19-1.87c0.72-0.64,1.38-1.34,1.91-2.15c0.7-1.06,1.02-2.22,0.84-3.48
	c-0.24-1.75-1.56-3.04-3.42-3.42c-0.8-0.16-1.61-0.19-2.41-0.06c-1.93,0.3-2.98,1.58-3.58,3.33c-0.19,0.57-0.19,0.57-0.8,0.41
	c-1.33-0.34-2.66-0.68-3.99-1.01c-0.23-0.06-0.35-0.09-0.27-0.38c1.17-3.9,3.51-6.65,7.67-7.34c4.02-0.67,7.63,0.27,10.16,3.67
	C44.71,24.75,44.55,28.35,42.63,31.92z"/>
</svg>
