<?xml version="1.0" encoding="utf-8"?>
<!-- Generator: Adobe Illustrator 24.3.2, SVG Export Plug-In . SVG Version: 6.00 Build 0)  -->
<svg version="1.1" id="Layer_1" xmlns="http://www.w3.org/2000/svg" xmlns:xlink="http://www.w3.org/1999/xlink" x="0px" y="0px"
	 viewBox="0 0 68.43 68.43" style="enable-background:new 0 0 68.43 68.43;" xml:space="preserve">
<style type="text/css">
	.st0{fill:#FFFFFF;}
</style>
<g>
	<g>
		<path class="st0" d="M34.81,8.85c0.15,0.06,0.29,0.13,0.45,0.18c1.25,0.44,2.12,1.57,2.12,2.88c0.02,5.35,0.02,10.69,0,16.04
			c-0.01,1.75-1.47,3.11-3.21,3.09c-1.71-0.02-3.11-1.41-3.11-3.14c-0.01-5.3-0.01-10.59,0-15.89c0-1.41,0.88-2.57,2.22-3.02
			c0.12-0.04,0.24-0.1,0.35-0.14C34.02,8.85,34.42,8.85,34.81,8.85z"/>
		<path class="st0" d="M24.71,21.35c0,0.64-0.03,1.29,0.01,1.93c0.06,0.92-0.29,1.63-0.95,2.24c-1.18,1.09-2.23,2.29-3.08,3.67
			c-4.93,7.99-1.7,18.65,6.84,22.56c9.33,4.27,20.1-1.1,22.18-11.15c1.14-5.52-0.38-10.38-4.37-14.37c-1.15-1.15-1.81-2.3-1.64-3.95
			c0.11-1.06,0.02-2.14,0.02-3.22c0.01-1.08,0.62-1.44,1.55-0.89c6.01,3.6,9.71,8.83,10.84,15.76c1.78,10.93-4.89,21.49-15.49,24.69
			c-12.51,3.77-25.57-4.05-28.17-16.87c-1.89-9.31,2.46-18.88,10.7-23.59c0.93-0.53,1.54-0.17,1.54,0.9
			C24.71,19.83,24.71,20.59,24.71,21.35z"/>
	</g>
</g>
</svg>
