<?xml version="1.0" encoding="utf-8"?>
<!-- Generator: Adobe Illustrator 24.3.2, SVG Export Plug-In . SVG Version: 6.00 Build 0)  -->
<svg version="1.1" id="Layer_1" xmlns="http://www.w3.org/2000/svg" xmlns:xlink="http://www.w3.org/1999/xlink" x="0px" y="0px"
	 viewBox="0 0 68.43 68.43" style="enable-background:new 0 0 68.43 68.43;" xml:space="preserve">
<style type="text/css">
	.st0{fill:#FFFFFF;}
</style>
<g>
	<path class="st0" d="M37.97,11.36c1.13,0.03,1.76,0.65,1.82,1.78c0.05,0.8-0.02,1.61,0.04,2.42c0.02,0.3,0.22,0.72,0.45,0.84
		c2.5,1.29,2.51,1.27,4.55-0.71c0.03-0.03,0.05-0.05,0.08-0.08c1.1-1.05,1.94-1.06,3.03,0.02c1.62,1.6,3.22,3.2,4.82,4.81
		c1.13,1.14,1.25,2.13,0,3.07c-1.77,1.33-1.94,2.74-0.78,4.46c0.2,0.3,0.59,0.6,0.93,0.64c0.79,0.1,1.61,0,2.41,0.05
		c1.07,0.06,1.71,0.68,1.73,1.75c0.04,2.53,0.04,5.06,0,7.58c-0.01,1.13-0.66,1.75-1.78,1.81c-0.8,0.04-1.61-0.02-2.41,0.05
		c-0.29,0.03-0.7,0.24-0.82,0.48c-1.27,2.51-1.25,2.52,0.72,4.54c0.08,0.08,0.16,0.15,0.23,0.23c0.81,0.89,0.85,1.78,0.03,2.63
		c-1.74,1.78-3.5,3.54-5.28,5.28c-0.85,0.83-1.76,0.81-2.63,0.01c-0.59-0.55-1.12-1.17-1.73-1.68c-0.21-0.18-0.66-0.27-0.91-0.18
		c-2.6,0.98-2.59,0.99-2.65,3.78c0,0.15,0,0.29-0.01,0.44c-0.1,1.05-0.72,1.68-1.79,1.7c-2.53,0.03-5.05,0.03-7.58,0
		c-1.11-0.01-1.73-0.67-1.79-1.81c-0.04-0.73-0.04-1.47-0.01-2.2c0.03-0.58-0.21-0.82-0.73-1.14c-1.79-1.11-3.2-0.9-4.36,0.88
		c-0.06,0.09-0.15,0.16-0.23,0.23c-0.88,0.78-1.78,0.8-2.63-0.03c-1.76-1.71-3.49-3.45-5.21-5.2c-0.88-0.9-0.87-1.79-0.02-2.71
		c0.5-0.54,1.01-1.06,1.56-1.55c0.4-0.36,0.42-0.66,0.27-1.21c-0.53-2.05-1.68-2.98-3.82-2.51c-0.1,0.02-0.22,0-0.33,0
		c-1.11-0.09-1.76-0.71-1.78-1.83c-0.03-2.49-0.03-4.98,0-7.47c0.01-1.18,0.67-1.8,1.86-1.85c0.77-0.03,1.55,0.06,2.3-0.04
		c0.33-0.04,0.72-0.35,0.92-0.65c1.17-1.73,1.03-3.25-0.83-4.43c-0.09-0.06-0.16-0.15-0.23-0.23c-0.74-0.86-0.79-1.74,0-2.55
		c1.76-1.81,3.55-3.6,5.37-5.36c0.82-0.79,1.69-0.75,2.54,0.02c0.54,0.49,1.08,1,1.55,1.55c0.43,0.5,0.81,0.41,1.41,0.26
		c1.95-0.48,2.79-1.57,2.37-3.56c-0.02-0.1,0-0.22,0-0.33c0.07-1.32,0.67-1.94,1.98-1.97c1.17-0.02,2.34-0.01,3.52-0.01
		C35.4,11.35,36.69,11.32,37.97,11.36z M51.19,32.14c-1-0.02-1.58-0.52-1.93-1.48c-0.56-1.54-1.18-3.06-1.87-4.55
		c-0.45-0.96-0.41-1.76,0.35-2.49c0.53-0.51,1.06-1,1.57-1.47c-1.04-1.04-1.99-1.99-3.1-3.1c-0.47,0.55-0.95,1.15-1.49,1.7
		c-0.67,0.69-1.44,0.71-2.31,0.32c-1.53-0.68-3.08-1.34-4.65-1.92c-0.96-0.35-1.46-0.93-1.47-1.93c-0.01-0.73,0-1.46,0-2.27
		c-1.37,0-2.67,0-4.15,0c0,0.69-0.01,1.4,0,2.11c0.02,1.15-0.54,1.78-1.64,2.15c-1.45,0.49-2.87,1.09-4.25,1.74
		c-1.2,0.57-1.78,0.56-2.75-0.39c-0.47-0.46-0.93-0.93-1.4-1.41c-0.95,1.03-1.85,2.01-2.92,3.17c0.38,0.34,0.97,0.82,1.52,1.34
		c0.73,0.7,0.76,1.48,0.35,2.4c-0.68,1.49-1.32,3.01-1.87,4.55c-0.36,1-0.95,1.53-2,1.54c-0.73,0.01-1.45,0-2.25,0
		c0,1.4,0,2.7,0,4.15c0.78,0,1.54-0.01,2.29,0c1,0.01,1.58,0.52,1.92,1.48c0.55,1.54,1.19,3.06,1.88,4.55
		c0.45,0.96,0.43,1.76-0.35,2.49c-0.53,0.5-1.09,0.98-1.6,1.43c1.08,1.07,2.03,2.02,3.13,3.12c0.46-0.52,0.94-1.12,1.48-1.67
		c0.67-0.69,1.43-0.72,2.31-0.33c1.53,0.68,3.08,1.33,4.65,1.91c0.96,0.35,1.46,0.92,1.48,1.93c0.01,0.73,0,1.46,0,2.28
		c1.4,0,2.72,0,4.16,0c0-0.81-0.02-1.57,0-2.33c0.02-0.95,0.51-1.51,1.43-1.85c1.57-0.58,3.12-1.23,4.64-1.92
		c0.92-0.42,1.69-0.36,2.4,0.35c0.51,0.52,1.01,1.05,1.56,1.62c0.96-1.06,1.85-2.05,2.89-3.2c-0.39-0.35-0.98-0.84-1.52-1.37
		c-0.72-0.71-0.74-1.49-0.33-2.41c0.68-1.49,1.32-3.01,1.87-4.55c0.36-1.01,0.95-1.52,2-1.52c0.73,0,1.45,0,2.24,0
		c0-1.4,0-2.7,0-4.15C52.66,32.15,51.92,32.16,51.19,32.14z"/>
	<path class="st0" d="M34.19,43c-4.79-0.01-8.74-3.95-8.77-8.73c-0.03-4.84,3.92-8.83,8.76-8.85C39.02,25.41,43,29.37,43,34.2
		C43,39.04,39.03,43.01,34.19,43z M34.18,39.48c2.94,0,5.29-2.35,5.3-5.29c0-2.85-2.37-5.23-5.23-5.25c-2.91-0.02-5.3,2.37-5.3,5.29
		C28.95,37.1,31.32,39.48,34.18,39.48z"/>
</g>
</svg>
