<?xml version="1.0" encoding="utf-8"?>
<!-- Generator: Adobe Illustrator 24.3.2, SVG Export Plug-In . SVG Version: 6.00 Build 0)  -->
<svg version="1.1" id="Layer_1" xmlns="http://www.w3.org/2000/svg" xmlns:xlink="http://www.w3.org/1999/xlink" x="0px" y="0px"
	 viewBox="0 0 68.43 68.43" style="enable-background:new 0 0 68.43 68.43;" xml:space="preserve">
<style type="text/css">
	.path-st0{fill:#FFFFFF;}
	.path-st1{fill:#05B795;}
</style>
<g>
	<path class="path-st0" d="M25.41,21.75c-0.9,0.02-1.61,0.76-1.6,1.66c0.02,0.92,0.73,1.61,1.66,1.6c0.88-0.01,1.62-0.77,1.61-1.66
		C27.07,22.47,26.3,21.74,25.41,21.75z"/>
	<path class="path-st0" d="M44.56,38.08c-0.01,3.9-3.22,7.07-7.12,7.05c-3.91-0.02-7.07-3.21-7.06-7.12c0.01-3.89,3.22-7.07,7.13-7.05
		C41.41,30.97,44.58,34.17,44.56,38.08z M37.45,43.62c3.09,0,5.59-2.48,5.59-5.56c0.01-3.08-2.49-5.58-5.58-5.58
		c-3.07,0-5.57,2.5-5.57,5.59C31.9,41.12,34.4,43.61,37.45,43.62z"/>
	<g>
		<path class="path-st0" d="M42.42,25.22c-0.01-0.54-0.48-1.01-1.02-1.01c-0.55,0-1.03,0.5-1.03,1.07c0,0.56,0.44,0.98,1.02,0.98
			C41.98,26.25,42.43,25.8,42.42,25.22z"/>
		<path class="path-st0" d="M35.19,9.06c-12.88,0-23.33,10.45-23.33,23.33c0,12.88,10.45,23.33,23.33,23.33
			c12.88,0,23.33-10.45,23.33-23.33C58.52,19.51,48.07,9.06,35.19,9.06z M38.34,30.16c-1.33-0.18-2.63,0.01-3.87,0.54
			c-0.29,0.12-0.43,0.09-0.6-0.19c-0.82-1.32-1.92-2.4-3.09-3.41c-0.17-0.15-0.3-0.23-0.52-0.04c-1.2,1.05-2.33,2.17-3.19,3.53
			c-0.22,0.35-0.41,0.71-0.55,1.1c-0.4,1.13-0.19,2.13,0.58,2.77c0.8,0.67,1.76,0.68,2.95-0.05c-0.36,0.73-0.65,1.32-0.97,1.98
			c0.63-0.08,0.57,0.22,0.53,0.63c-0.26,2.33,0.34,4.41,1.87,6.2c0.11,0.13,0.22,0.25,0.34,0.38c-0.1,0.16-0.25,0.09-0.38,0.09
			c-2.33,0-4.66,0.01-6.98,0c-1.36,0-2.2-0.85-2.2-2.22c0-6.54,0-13.08,0-19.62c0-1.35,0.86-2.22,2.21-2.22c4.06,0,8.11,0,12.17,0
			c1.27,0,2.1,0.82,2.11,2.08c0.01,2.69,0,5.37,0.01,8.06C38.76,30.08,38.73,30.22,38.34,30.16z M48,26.83
			c-0.91,2.08-1.84,4.16-2.76,6.24c-0.11,0.24-0.26,0.44-0.5,0.57c-0.35,0.19-0.62,0.21-0.9-0.19c-0.95-1.38-2.25-2.33-3.83-2.88
			c-0.14-0.05-0.3-0.05-0.41-0.23c0.1-0.15,0.24-0.1,0.35-0.14c0.43-0.18,0.71-0.48,0.71-0.97c0-0.48-0.24-0.84-0.7-0.96
			c-0.33-0.08-0.38-0.24-0.38-0.53c0.01-1.39,0-2.77,0.01-4.16c0-0.92,0.73-1.41,1.58-1.04c2.08,0.91,4.16,1.84,6.23,2.77
			C48.07,25.61,48.29,26.17,48,26.83z"/>
		<path class="path-st0" d="M43.45,28.12c0-0.55-0.45-1.02-0.99-1.03c-0.55-0.02-1.05,0.47-1.06,1.03c0,0.54,0.45,1,1,1.01
			C42.99,29.14,43.45,28.69,43.45,28.12z"/>
		<path class="path-st0" d="M45.21,25.89c-0.55,0.01-0.99,0.44-1.01,1.01c-0.01,0.59,0.44,1.07,1.01,1.07c0.57,0.01,1.05-0.47,1.04-1.04
			C46.25,26.36,45.76,25.88,45.21,25.89z"/>
		<path class="path-st0" d="M43.49,29.92c-0.58-0.01-1.04,0.44-1.04,1.02c0,0.55,0.46,1.01,1,1.02c0.57,0.01,1.04-0.46,1.04-1.04
			C44.49,30.36,44.06,29.93,43.49,29.92z"/>
	</g>
	<path class="path-st1" d="M40.23,38.26c-0.01,0.1-0.03,0.33-0.08,0.57c-0.04,0.2-0.16,0.34-0.39,0.33c-0.2-0.01-0.31-0.14-0.35-0.32
		c-0.11-0.52-0.11-1.05,0-1.57c0.04-0.18,0.15-0.31,0.34-0.33c0.22-0.02,0.34,0.12,0.4,0.32C40.24,37.54,40.22,37.83,40.23,38.26z"
		/>
	<path class="path-st1" d="M37.6,38.1c-0.03,0.24-0.04,0.5-0.08,0.75c-0.03,0.18-0.15,0.31-0.35,0.31c-0.2,0.01-0.33-0.11-0.37-0.29
		c-0.12-0.54-0.11-1.08-0.01-1.62c0.03-0.18,0.15-0.31,0.35-0.31c0.23,0,0.35,0.15,0.38,0.34C37.58,37.54,37.58,37.82,37.6,38.1z"/>
	<path class="path-st1" d="M37.49,33.27c-2.61-0.03-4.78,2.12-4.79,4.75c-0.02,2.62,2.12,4.79,4.74,4.81c2.62,0.02,4.78-2.1,4.82-4.73
		C42.3,35.47,40.15,33.3,37.49,33.27z M35.11,39.58c-0.36,0-0.31-0.22-0.31-0.44c0-0.43-0.01-0.85,0.01-1.28
		c0.02-0.3-0.03-0.5-0.4-0.45c-0.14,0.02-0.32,0.06-0.35-0.18c-0.02-0.22,0.12-0.25,0.28-0.28c0.23-0.04,0.43-0.14,0.51-0.37
		c0.08-0.23,0.26-0.19,0.42-0.16c0.2,0.04,0.13,0.22,0.13,0.34c0,0.41,0,0.82,0,1.23c0.01,0.37,0.01,0.75,0,1.13
		C35.39,39.32,35.49,39.57,35.11,39.58z M38.14,38.84c-0.12,0.49-0.42,0.78-0.94,0.79c-0.5,0.01-0.85-0.22-1-0.71
		c-0.18-0.59-0.17-1.18,0-1.77c0.14-0.47,0.47-0.69,0.96-0.69c0.5,0,0.8,0.25,0.95,0.71c0.1,0.3,0.1,0.61,0.12,0.98
		C38.21,38.34,38.2,38.6,38.14,38.84z M40.68,39.05c-0.17,0.39-0.48,0.58-0.89,0.58c-0.43,0.01-0.76-0.17-0.92-0.59
		c-0.24-0.65-0.24-1.31-0.01-1.96c0.16-0.44,0.5-0.63,0.96-0.62c0.45,0.01,0.74,0.23,0.9,0.64c0.12,0.31,0.15,0.63,0.14,0.84
		C40.86,38.4,40.83,38.74,40.68,39.05z"/>
</g>
</svg>
