<?xml version="1.0" encoding="utf-8"?>
<!-- Generator: Adobe Illustrator 24.3.1, SVG Export Plug-In . SVG Version: 6.00 Build 0)  -->
<svg version="1.1" id="Layer_1" xmlns="http://www.w3.org/2000/svg" xmlns:xlink="http://www.w3.org/1999/xlink" x="0px" y="0px"
	 viewBox="0 0 68.4 68.4" style="enable-background:new 0 0 68.4 68.4;" xml:space="preserve">
<style type="text/css">
	.st0{opacity:0.65;}
	.st1{fill:#FFFFFF;}
</style>
<g id="JXXW9d_8_" class="st0">
	<g>
		<g>
			<path class="st1" d="M34.2,51.9c-6.8,0-13.7,0-20.5,0c-0.3,0-0.6,0-0.8-0.3c-0.2-0.2-0.2-0.5-0.2-0.7c0-3,0-5.9,0-8.9
				c0-1.9,0-3.8,0-5.6c0-0.7,0.3-1,1-1c1.5,0,3.1,0,4.6,0c0.7,0,1,0.3,1,1c0,2.8,0,5.7,0,8.5c0,0.3,0.1,0.3,0.3,0.3
				c9.7,0,19.4,0,29.1,0c0.3,0,0.3-0.1,0.3-0.3c0-2.9,0-5.7,0-8.6c0-0.7,0.3-1,1-1c1.5,0,3.1,0,4.7,0c0.7,0,1,0.3,1,1
				c0,4.9,0,9.7,0,14.6c0,0.7-0.3,1-1,1C47.9,51.9,41,51.9,34.2,51.9z"/>
			<path class="st1" d="M39.2,34.7c0,1.8,0,3.6,0,5.4c0,1-0.8,1.8-1.8,1.8c-2.1,0-4.2,0-6.3,0c-1.1,0-1.8-0.7-1.8-1.8
				c0-3.7,0-7.4,0-11.1c0-0.3-0.1-0.3-0.3-0.3c-2.1,0-4.2,0-6.3,0c-1.1,0-1.9-1-1.6-2c0.1-0.3,0.2-0.6,0.5-0.8
				c3.9-3.9,7.7-7.7,11.6-11.5c0.7-0.7,1.7-0.7,2.4,0c3.8,3.8,7.7,7.7,11.5,11.5c0.5,0.5,0.7,1.1,0.4,1.8c-0.2,0.6-0.9,1-1.6,1
				c-2.1,0-4.2,0-6.3,0c-0.2,0-0.3,0.1-0.3,0.3C39.2,30.9,39.2,32.8,39.2,34.7z"/>
		</g>
	</g>
</g>
</svg>
