<?xml version="1.0" encoding="utf-8"?>
<!-- Generator: Adobe Illustrator 24.3.2, SVG Export Plug-In . SVG Version: 6.00 Build 0)  -->
<svg version="1.1" id="Layer_1" xmlns="http://www.w3.org/2000/svg" xmlns:xlink="http://www.w3.org/1999/xlink" x="0px" y="0px"
	 viewBox="0 0 68.43 68.43" style="enable-background:new 0 0 68.43 68.43;" xml:space="preserve">
<style type="text/css">
	.st0{fill:#FFFFFF;}
</style>
<g id="ZuqhFE_2_">
	<g>
		<g>
			<path class="st0" d="M20.23,37.39c0-4.51,0.02-9.02-0.02-13.52c-0.01-0.87,0.19-1.22,1.12-1.16c1.23,0.08,2.47,0.08,3.7,0
				c0.99-0.06,1.3,0.23,1.29,1.26c-0.05,7.36-0.02,14.72-0.02,22.07c0,0.3-0.01,0.6,0,0.89c0.02,0.54-0.12,1.21,0.67,1.28
				c0.67,0.06,0.84-0.46,0.87-1.01c0.02-0.28,0.07-0.51,0.42-0.51c1.06,0,2.13-0.02,3.19,0.01c0.5,0.01,0.41,0.45,0.44,0.77
				c0.04,0.43,0.24,0.74,0.7,0.75c0.54,0.02,0.75-0.36,0.8-0.82c0.04-0.38,0.03-0.76,0.03-1.15c0-7.4,0.02-14.8-0.02-22.2
				c-0.01-1.02,0.2-1.45,1.32-1.37c1.27,0.1,2.55,0.06,3.83,0.01c0.67-0.02,0.88,0.21,0.88,0.87c-0.02,9.27-0.02,18.54,0,27.82
				c0,0.76-0.29,0.91-0.98,0.91c-5.74-0.02-11.48-0.03-17.22,0.01c-0.95,0.01-0.99-0.43-0.99-1.15
				C20.24,46.57,20.23,41.98,20.23,37.39z"/>
			<path class="st0" d="M52.16,39.94c0,3.74-0.03,7.49,0.02,11.23c0.01,0.88-0.23,1.17-1.13,1.15c-3.06-0.05-6.12-0.04-9.19,0
				c-0.82,0.01-1.11-0.21-1.11-1.07c0.03-7.57,0.03-15.14,0-22.71c0-0.78,0.25-1.01,1.02-1c3.06,0.04,6.13,0.05,9.19-0.01
				c0.94-0.02,1.23,0.22,1.22,1.19C52.13,32.45,52.16,36.2,52.16,39.94z"/>
			<path class="st0" d="M35.99,21.17c-0.85,0-1.7-0.04-2.55,0.01c-0.69,0.04-0.9-0.26-0.86-0.89c0.03-0.64,0.01-1.27,0-1.91
				c0-0.21-0.01-0.43-0.04-0.63c-0.22-1.22-1.04-1.53-3.62-1.38c-1.07,0.06-1.8,0.49-1.83,1.67c-0.01,0.68-0.05,1.36,0.01,2.04
				c0.06,0.78-0.13,1.15-1.03,1.11c-1.65-0.07-3.31-0.02-4.97-0.02c-0.42,0-0.81,0.07-0.87-0.6c-0.55-6.33,3.22-10.36,8.02-11.28
				c5.32-1.02,10.82,3.23,11.12,8.6c0.18,3.29,0.18,3.29-3.11,3.29C36.16,21.17,36.08,21.17,35.99,21.17z"/>
			<path class="st0" d="M46.54,25.99c-1.36,0-2.72,0-4.08,0c-1.68,0-1.65,0-1.69-1.62C40.7,21.7,41,19.02,40.5,16.36
				c-0.16-0.86,0.6-0.69,1.02-0.74c4.54-0.55,8.88,2.29,10.25,6.66c0.06,0.2,0.09,0.41,0.15,0.62c0.73,2.94,0.61,3.1-2.3,3.1
				C48.58,25.99,47.56,25.99,46.54,25.99z"/>
			<path class="st0" d="M41.77,56.6c-8.03,0-15.83,0-23.87,0c0.79-1.06,1.48-2,2.18-2.92c0.28-0.37,0.69-0.27,1.06-0.27
				c5.78,0,11.56,0,17.34-0.01c0.6,0,1.05,0.13,1.41,0.65C40.44,54.85,41.04,55.62,41.77,56.6z"/>
			<path class="st0" d="M40.74,53.4c3.71,0,7.06,0,10.4,0c0.35,0,0.68,0.01,0.91,0.32c0.67,0.91,1.34,1.82,2.16,2.93
				c-3.69,0-7.15,0-10.6,0c-0.33,0-0.55-0.15-0.73-0.41C42.23,55.37,41.57,54.51,40.74,53.4z"/>
			<path class="st0" d="M29.85,22.73c0.25,0,0.51,0.03,0.76,0c0.97-0.14,1.31,0.2,1.31,1.23c0,1.03-0.34,1.37-1.32,1.25
				c-0.46-0.06-0.94-0.07-1.39,0c-1.13,0.17-1.5-0.28-1.38-1.39C27.96,22.55,27.62,22.74,29.85,22.73z"/>
			<path class="st0" d="M29.84,33.15c-0.21,0-0.42,0-0.63,0c-1.24,0-1.82-0.94-1.34-2.13c0.15-0.38,0.44-0.34,0.72-0.35
				c0.59-0.01,1.18-0.01,1.78,0c1.45,0,1.9,0.63,1.51,2.02c-0.1,0.36-0.31,0.46-0.64,0.46C30.77,33.15,30.31,33.15,29.84,33.15z"/>
			<path class="st0" d="M29.94,34.71c0.21,0,0.43,0.02,0.64,0c0.91-0.11,1.37,0.09,1.35,1.2c-0.02,1.04-0.36,1.37-1.33,1.26
				c-0.5-0.06-1.02-0.05-1.53,0c-0.91,0.1-1.32-0.17-1.24-1.18C27.96,34.46,27.57,34.74,29.94,34.71z"/>
			<path class="st0" d="M29.88,42.65c0.25,0,0.51,0.03,0.76-0.01c1.03-0.17,1.26,0.3,1.28,1.27c0.03,1.07-0.39,1.34-1.33,1.23
				c-0.42-0.05-0.86-0.07-1.27,0c-1.28,0.22-1.63-0.35-1.49-1.54C27.96,42.52,27.66,42.65,29.88,42.65z"/>
			<path class="st0" d="M29.82,29.12c-0.17,0-0.34,0-0.51,0c-1.46,0-2.02-0.55-1.39-1.86c0.59-1.22,2.02-0.29,3.05-0.51
				c0.47-0.1,0.87-0.01,0.93,0.68C32.04,29.07,32.02,29.12,29.82,29.12z"/>
			<path class="st0" d="M29.8,41.09c-0.25,0-0.51,0.03-0.76-0.01c-0.39-0.06-0.99,0.24-1.12-0.27c-0.15-0.59-0.07-1.26,0-1.88
				c0.03-0.28,0.4-0.25,0.65-0.25c0.68-0.01,1.35,0.03,2.03-0.02c0.83-0.05,1.31,0.07,1.32,1.13c0.01,1.08-0.33,1.45-1.36,1.3
				C30.31,41.06,30.05,41.09,29.8,41.09z"/>
		</g>
	</g>
</g>
</svg>
