<?xml version="1.0" encoding="utf-8"?>
<!-- Generator: Adobe Illustrator 24.3.2, SVG Export Plug-In . SVG Version: 6.00 Build 0)  -->
<svg version="1.1" id="Layer_1" xmlns="http://www.w3.org/2000/svg" xmlns:xlink="http://www.w3.org/1999/xlink" x="0px" y="0px"
	 viewBox="0 0 68.43 68.43" style="enable-background:new 0 0 68.43 68.43;" xml:space="preserve">
<style type="text/css">
	.st0{fill:#FFFFFF;}
</style>
<g>
	<path class="st0" d="M24.3,41.21c0.4,0,0.74-0.34,0.74-0.74c0-0.4-0.34-0.74-0.74-0.75c-0.41-0.01-0.76,0.34-0.76,0.76
		C23.55,40.87,23.9,41.22,24.3,41.21z"/>
	<path class="st0" d="M31.64,37.54c-0.41,0-0.74,0.34-0.74,0.75c0,0.4,0.35,0.74,0.75,0.74c0.42-0.01,0.77-0.35,0.76-0.76
		C32.4,37.88,32.04,37.53,31.64,37.54z"/>
	<path class="st0" d="M27.46,29.74c0.34-0.02,0.68,0.06,1.02,0.09c0.29,0.02,0.48,0.17,0.57,0.45c0.21,0.64,0.54,1.21,0.99,1.7
		c0.21,0.22,0.24,0.45,0.12,0.72c-0.15,0.33-0.28,0.66-0.43,0.99c-0.06,0.14-0.06,0.22,0.09,0.31c0.51,0.28,1.01,0.58,1.52,0.87
		c0.13,0.08,0.21,0.04,0.29-0.07c0.21-0.3,0.43-0.6,0.65-0.9c0.16-0.23,0.36-0.32,0.65-0.27c0.67,0.13,1.33,0.13,2-0.01
		c0.27-0.06,0.47,0.02,0.64,0.24c0.22,0.3,0.45,0.59,0.66,0.89c0.1,0.15,0.19,0.15,0.34,0.06c0.48-0.29,0.97-0.58,1.46-0.85
		c0.17-0.09,0.16-0.17,0.09-0.32c-0.16-0.33-0.3-0.68-0.45-1.01c-0.11-0.25-0.08-0.46,0.1-0.67c0.44-0.5,0.77-1.07,0.98-1.71
		c0.1-0.3,0.3-0.46,0.6-0.45c0.37,0.02,0.73-0.13,1.1-0.11c0.14,0.01,0.18-0.08,0.18-0.21c0.01-0.58-0.05-1.17,0-1.75
		c0.01-0.16-0.06-0.23-0.22-0.24c-0.35-0.03-0.7-0.08-1.04-0.11c-0.33-0.03-0.53-0.17-0.64-0.5c-0.2-0.63-0.54-1.19-0.98-1.67
		c-0.2-0.22-0.24-0.45-0.11-0.72c0.15-0.32,0.27-0.65,0.42-0.96c0.08-0.16,0.07-0.25-0.11-0.35c-0.5-0.27-0.99-0.55-1.47-0.83
		c-0.14-0.08-0.21-0.08-0.31,0.06c-0.21,0.31-0.44,0.6-0.65,0.9c-0.16,0.23-0.37,0.32-0.65,0.26c-0.32-0.07-0.65-0.1-0.99-0.09
		c-0.34-0.03-0.66-0.01-0.97,0.07c-0.32,0.08-0.54-0.02-0.73-0.28c-0.19-0.28-0.41-0.54-0.61-0.82c-0.1-0.15-0.19-0.18-0.35-0.08
		c-0.48,0.29-0.97,0.57-1.46,0.85c-0.14,0.08-0.17,0.16-0.1,0.3c0.16,0.33,0.3,0.68,0.45,1.01c0.12,0.26,0.09,0.48-0.1,0.7
		c-0.45,0.51-0.78,1.09-0.99,1.74c-0.09,0.26-0.27,0.39-0.54,0.42c-0.34,0.03-0.68,0.09-1.01,0.11c-0.24,0.01-0.34,0.1-0.33,0.36
		c0.02,0.51,0.01,1.03,0,1.55C27.13,29.66,27.24,29.75,27.46,29.74z M33.89,25.67c1.6,0,2.9,1.29,2.9,2.89
		c0,1.62-1.29,2.91-2.91,2.91c-1.59,0-2.92-1.32-2.91-2.89C30.98,26.96,32.27,25.67,33.89,25.67z"/>
	<path class="st0" d="M24.31,44.36c-0.41-0.01-0.75,0.31-0.76,0.72c-0.01,0.4,0.32,0.75,0.73,0.76c0.42,0.01,0.77-0.33,0.77-0.74
		C25.05,44.7,24.72,44.36,24.31,44.36z"/>
	<path class="st0" d="M33.91,30.46c1.05-0.02,1.88-0.88,1.85-1.92c-0.02-1.04-0.87-1.87-1.9-1.85c-1.04,0.01-1.88,0.88-1.86,1.92
		C32.02,29.63,32.89,30.47,33.91,30.46z"/>
	<path class="st0" d="M34.33,13.7c-11.76,0-21.3,9.54-21.3,21.3s9.54,21.3,21.3,21.3s21.3-9.54,21.3-21.3S46.09,13.7,34.33,13.7z
		 M26.15,27.55c-0.01-0.55,0.35-0.99,0.91-1.05c0.23-0.02,0.46-0.07,0.69-0.07c0.27-0.01,0.44-0.11,0.52-0.39
		c0.06-0.2,0.19-0.38,0.29-0.57c0.14-0.28,0.47-0.49,0.46-0.79s-0.23-0.59-0.36-0.88c-0.25-0.57-0.09-1.08,0.45-1.4
		c0.44-0.26,0.9-0.5,1.33-0.78c0.94-0.63,1.54-0.5,2.09,0.42c0.22,0.36,0.48,0.53,0.9,0.4c0.13-0.04,0.27-0.01,0.41-0.02
		c0.33-0.03,0.71,0.17,0.97,0c0.27-0.17,0.42-0.53,0.62-0.8c0.33-0.43,0.85-0.56,1.32-0.3c0.63,0.35,1.25,0.7,1.87,1.07
		c0.48,0.28,0.63,0.79,0.42,1.31c-0.1,0.24-0.19,0.49-0.31,0.72c-0.1,0.19-0.06,0.32,0.07,0.47c0.2,0.24,0.42,0.49,0.49,0.79
		c0.16,0.67,0.64,0.76,1.21,0.78c0.79,0.03,1.2,0.55,1.09,1.35c-0.03,0.24-0.03,0.49-0.01,0.73c0.04,0.39,0.04,0.78,0,1.16
		c-0.06,0.55-0.4,0.88-0.93,0.94c-0.28,0.03-0.56,0.07-0.84,0.1c-0.13,0.01-0.21,0.06-0.26,0.19c-0.19,0.47-0.44,0.91-0.75,1.31
		c-0.1,0.13-0.1,0.23-0.04,0.37c0.13,0.27,0.25,0.55,0.36,0.83c0.18,0.46,0.04,0.95-0.37,1.21c-0.64,0.4-1.3,0.78-1.96,1.15
		c-0.45,0.24-0.99,0.09-1.3-0.32c-0.16-0.22-0.34-0.43-0.49-0.66c-0.1-0.14-0.2-0.18-0.37-0.16c-0.49,0.07-0.99,0.07-1.48,0
		c-0.16-0.02-0.25,0.03-0.34,0.16c-0.16,0.23-0.33,0.46-0.49,0.69c-0.21,0.29-0.5,0.43-0.85,0.43c-0.18,0.01-0.35-0.05-0.52-0.15
		c-0.6-0.34-1.2-0.68-1.8-1.03c-0.52-0.31-0.67-0.82-0.43-1.38c0.1-0.24,0.2-0.49,0.31-0.72c0.07-0.14,0.05-0.25-0.05-0.37
		c-0.32-0.4-0.57-0.83-0.76-1.31c-0.06-0.16-0.17-0.22-0.33-0.23c-0.25-0.02-0.5-0.05-0.75-0.07c-0.62-0.07-0.98-0.46-0.99-1.09
		C26.15,28.91,26.17,28.23,26.15,27.55z M27.37,37.68c-0.45-0.29-0.61-0.84-0.45-1.36c0.15-0.49,0.62-0.82,1.15-0.82
		c0.53,0,0.98,0.34,1.14,0.84c0.16,0.5-0.02,1.06-0.48,1.35c-0.16,0.1-0.2,0.22-0.2,0.4c0.01,0.56,0,1.13,0,1.69
		c0,0.6,0,1.19-0.01,1.8c0,0.14,0.02,0.21,0.19,0.21c0.8,0,1.61,0.01,2.41,0.03c0.19,0.01,0.3-0.06,0.4-0.22
		c0.31-0.51,1.13-0.67,1.62-0.33c0.42,0.29,0.6,0.7,0.52,1.21c-0.07,0.48-0.45,0.86-0.9,0.96c-0.51,0.11-1-0.07-1.27-0.5
		c-0.11-0.18-0.23-0.24-0.44-0.24c-0.93,0.01-1.87,0-2.8,0c-0.52,0-0.65-0.14-0.65-0.66c0-1.3-0.01-2.61,0-3.91
		C27.6,37.93,27.56,37.8,27.37,37.68z M33.59,38.73c-0.15,0-0.31-0.06-0.41,0.17c-0.5,1.19-1.9,1.37-2.76,0.51
		c-0.67-0.66-0.58-1.79,0.14-2.39c0.75-0.64,1.91-0.55,2.4,0.28c0.3,0.51,0.64,0.57,1.12,0.52c0.08-0.01,0.16,0,0.23,0
		c0.19,0,0.37,0,0.56,0c0.53,0,0.53,0,0.33,0.48c-0.03,0.07-0.05,0.15-0.07,0.22c-0.04,0.15-0.12,0.22-0.29,0.21
		C34.42,38.72,34.01,38.72,33.59,38.73z M23.56,38.97c0.22-0.1,0.29-0.23,0.28-0.46c-0.01-0.86-0.01-1.71,0-2.57
		c-0.01-0.87-0.01-1.75,0-2.64c0-0.36,0.15-0.55,0.45-0.56c1.15-0.01,2.29,0,3.44-0.01c0.14,0,0.17,0.05,0.11,0.17
		c-0.08,0.17-0.16,0.33-0.18,0.52c-0.02,0.2-0.12,0.24-0.31,0.24c-0.76-0.01-1.52,0-2.27-0.01c-0.23,0-0.32,0.04-0.32,0.3
		c0.01,1.55,0.01,3.09,0,4.64c0,0.18,0.05,0.27,0.22,0.35c0.62,0.28,0.96,0.78,0.99,1.46c0.04,0.84-0.57,1.56-1.41,1.71
		c-0.79,0.14-1.59-0.35-1.85-1.13C22.45,40.19,22.79,39.33,23.56,38.97z M36.28,45.55c-0.08,0-0.16,0-0.23,0c-3.28,0-6.56,0-9.84,0
		c-0.18,0-0.31,0.01-0.4,0.23c-0.32,0.74-1.1,1.11-1.87,0.94c-0.75-0.17-1.31-0.85-1.32-1.62c-0.01-0.78,0.53-1.46,1.31-1.65
		c0.75-0.18,1.54,0.19,1.87,0.91c0.1,0.22,0.22,0.27,0.44,0.27c1.53,0,3.07,0,4.61,0c1.57,0,3.13,0,4.7,0
		c0.11,0,0.24-0.02,0.32,0.09c0.17,0.23,0.34,0.45,0.51,0.67C36.48,45.53,36.41,45.55,36.28,45.55z M48.14,42.41
		c-0.23,0.55-0.46,1.09-0.7,1.64c-0.1,0.24-0.29,0.34-0.54,0.27c-0.29-0.08-0.58-0.16-0.87-0.26c-0.19-0.06-0.32-0.05-0.46,0.11
		c-0.17,0.19-0.39,0.35-0.59,0.52c-0.25,0.23-0.69,0.28-0.81,0.58c-0.12,0.3-0.02,0.69-0.02,1.04c0,0.35-0.1,0.49-0.44,0.53
		c-0.57,0.08-1.14,0.15-1.71,0.21c-0.33,0.04-0.46-0.07-0.54-0.4c-0.07-0.3-0.15-0.6-0.22-0.91c-0.03-0.13-0.09-0.2-0.22-0.22
		c-0.54-0.12-1.04-0.32-1.5-0.62c-0.14-0.09-0.25-0.09-0.4,0c-0.26,0.17-0.53,0.32-0.8,0.48c-0.24,0.13-0.45,0.1-0.62-0.12
		c-0.35-0.47-0.71-0.93-1.06-1.4c-0.18-0.24-0.15-0.43,0.06-0.65c0.21-0.2,0.41-0.41,0.64-0.6c0.14-0.12,0.17-0.24,0.12-0.43
		c-0.14-0.52-0.22-1.05-0.17-1.58c0.01-0.16-0.04-0.27-0.18-0.32c-0.32-0.11-0.57-0.33-0.86-0.5c-0.21-0.13-0.3-0.33-0.19-0.58
		c0.23-0.54,0.45-1.07,0.68-1.61c0.11-0.25,0.3-0.35,0.57-0.26c0.3,0.09,0.6,0.17,0.89,0.27c0.16,0.05,0.27,0.03,0.38-0.1
		c0.26-0.3,0.56-0.58,0.92-0.75c0.44-0.21,0.65-0.48,0.52-0.91c0.01-0.2,0.01-0.35,0.01-0.49c0-0.36,0.12-0.5,0.47-0.54
		c0.55-0.07,1.1-0.14,1.65-0.21c0.31-0.04,0.48,0.07,0.56,0.37c0.08,0.3,0.16,0.6,0.22,0.91c0.03,0.16,0.11,0.22,0.27,0.26
		c0.52,0.11,1,0.31,1.45,0.6c0.15,0.1,0.27,0.11,0.42,0.01c0.25-0.17,0.51-0.32,0.78-0.46c0.29-0.16,0.45-0.13,0.66,0.13
		c0.35,0.45,0.69,0.89,1.02,1.35c0.19,0.26,0.17,0.45-0.05,0.67c-0.22,0.22-0.45,0.43-0.68,0.64c-0.1,0.1-0.14,0.18-0.09,0.33
		c0.17,0.53,0.25,1.08,0.21,1.64c-0.01,0.16,0.05,0.25,0.19,0.32c0.28,0.15,0.56,0.31,0.84,0.47
		C48.18,41.97,48.24,42.17,48.14,42.41z"/>
	<path class="st0" d="M42.11,38.65c-1.19-0.01-2.17,0.96-2.18,2.17c0,1.19,0.95,2.16,2.15,2.16c1.2,0.01,2.18-0.96,2.18-2.16
		C44.26,39.64,43.3,38.66,42.11,38.65z"/>
</g>
</svg>
