<?xml version="1.0" encoding="utf-8"?>
<!-- Generator: Adobe Illustrator 24.3.2, SVG Export Plug-In . SVG Version: 6.00 Build 0)  -->
<svg version="1.1" id="Layer_1" xmlns="http://www.w3.org/2000/svg" xmlns:xlink="http://www.w3.org/1999/xlink" x="0px" y="0px"
	 viewBox="0 0 68.43 68.43" style="enable-background:new 0 0 68.43 68.43;" xml:space="preserve">
<style type="text/css">
	.st0{fill:#FFFFFF;}
</style>
<g id="m7YitO_2_">
	<g>
		<g>
			<path class="st0" d="M34.21,27.28c4.3,0,8.59,0.02,12.89-0.02c0.77-0.01,0.98,0.2,0.98,0.97c-0.03,8.32-0.01,16.63-0.02,24.95
				c0,2.17-1.36,3.56-3.53,3.57c-6.87,0.02-13.75,0.02-20.62,0c-2.17-0.01-3.53-1.4-3.53-3.57c-0.01-8.32,0.01-16.63-0.02-24.95
				c0-0.78,0.22-0.98,0.98-0.97C25.62,27.29,29.92,27.28,34.21,27.28L34.21,27.28z M28.61,42.07c0-1.3,0-2.61,0-3.91
				c0-1.61-0.01-3.23,0-4.84c0-0.62-0.17-1.16-0.85-1.18c-0.76-0.03-0.94,0.55-0.93,1.2c0,0.07,0,0.14,0,0.21
				c0,5.66,0.01,11.33,0,16.99c0,0.66,0.05,1.34,0.9,1.33c0.84-0.01,0.89-0.69,0.89-1.35C28.6,47.7,28.61,44.89,28.61,42.07z
				 M41.6,41.96C41.59,41.96,41.59,41.96,41.6,41.96c-0.01-2.85-0.01-5.7,0-8.55c0-0.64-0.11-1.26-0.86-1.28
				c-0.82-0.02-0.93,0.63-0.93,1.31c0.01,5.7,0,11.4,0,17.1c0,0.66,0.05,1.33,0.91,1.32c0.86-0.01,0.88-0.71,0.88-1.35
				C41.6,47.66,41.6,44.81,41.6,41.96z M35.08,42.04c0-2.88-0.01-5.76,0-8.64c0-0.64-0.09-1.25-0.86-1.26s-0.88,0.58-0.88,1.23
				c0.01,5.73,0,11.46,0,17.19c0,0.65,0.03,1.33,0.91,1.3c0.8-0.02,0.83-0.66,0.83-1.28C35.08,47.73,35.08,44.89,35.08,42.04z"/>
			<path class="st0" d="M34.21,25.5c-5.02,0-10.03,0-15.05,0c-1.43,0-1.57-0.15-1.57-1.62c-0.01-1.62,0.03-3.23-0.01-4.85
				c-0.02-0.97,0.39-1.38,1.35-1.35c1.34,0.03,2.68-0.04,4.02,0.02c0.75,0.03,1.05-0.15,0.99-0.96c-0.07-0.92,0-1.85-0.02-2.78
				c-0.01-0.8,0.33-1.23,1.16-1.23c6.08,0,12.16,0,18.25,0c0.82,0,1.18,0.42,1.16,1.22c-0.02,0.96,0.04,1.93-0.02,2.89
				c-0.04,0.7,0.23,0.87,0.88,0.85c1.41-0.04,2.82,0,4.23-0.01c0.86-0.01,1.26,0.37,1.25,1.24c-0.02,1.75-0.02,3.51,0.01,5.26
				c0.02,0.97-0.41,1.33-1.37,1.33C44.38,25.49,39.3,25.5,34.21,25.5L34.21,25.5z M34.18,17.69L34.18,17.69c2.13,0,4.26-0.01,6.39,0
				c2.16,0,2.11,0,2.16-2.15c0.02-0.91-0.32-1.05-1.13-1.04c-4.53,0.04-9.07,0.02-13.6,0.02c-2.35,0-2.31,0-2.31,2.31
				c0,0.78,0.31,0.89,0.97,0.88C29.17,17.67,31.68,17.69,34.18,17.69z"/>
		</g>
	</g>
</g>
</svg>
