<?xml version="1.0" encoding="utf-8"?>
<!-- Generator: Adobe Illustrator 24.3.2, SVG Export Plug-In . SVG Version: 6.00 Build 0)  -->
<svg version="1.1" id="Layer_1" xmlns="http://www.w3.org/2000/svg" xmlns:xlink="http://www.w3.org/1999/xlink" x="0px" y="0px"
	 viewBox="0 0 68.43 68.43" style="enable-background:new 0 0 68.43 68.43;" xml:space="preserve">
<style type="text/css">
	.path-st0{fill:#05B795;}
	.path-st1{fill:#05B795;}
</style>
<g>
	<path class="path-st0" d="M76.76,32.51c0.66-0.03,1.31-0.01,1.97-0.01c0.71,0,0.69,0,0.68-0.71c-0.01-0.26-0.1-0.32-0.33-0.31
		c-0.39,0.01-0.78,0-1.17,0s-0.78,0.03-1.17,0c-0.43-0.04-0.36,0.23-0.35,0.47C76.4,32.2,76.27,32.53,76.76,32.51z"/>
	<path class="path-st0" d="M79.41,41.54c0-0.11,0-0.22,0-0.34c0-0.72,0-0.7-0.71-0.68c-0.26,0.01-0.32,0.11-0.31,0.34
		c0.02,0.4,0.03,0.79,0,1.18c-0.03,0.39,0.1,0.5,0.49,0.51c0.42,0.01,0.6-0.1,0.53-0.54C79.39,41.86,79.41,41.7,79.41,41.54z"/>
	<path class="path-st0" d="M79.05,33.47c-0.66,0.02-1.31,0.01-1.97,0.01c-0.75,0-0.74,0-0.69,0.75c0.01,0.2,0.07,0.28,0.27,0.27
		c0.41-0.01,0.81,0,1.22,0c0.3,0,0.59,0.01,0.9-0.01c0.72-0.01,0.61,0.15,0.64-0.64C79.43,33.56,79.34,33.46,79.05,33.47z"/>
	<path class="path-st0" d="M79.39,29.9c0.03-0.17,0.1-0.42-0.25-0.42c-0.82,0.01-1.65,0.01-2.48,0c-0.42,0-0.26,0.31-0.26,0.5
		c-0.01,0.19-0.15,0.5,0.27,0.49c0.41-0.01,0.81,0,1.22,0c0.42,0,0.85,0.01,1.26,0C79.6,30.45,79.35,30.1,79.39,29.9z"/>
	<path class="path-st0" d="M80.42,28.05c-0.04,0.25-0.02,0.44,0.35,0.43c0.72-0.03,1.45-0.01,2.17-0.01c0.63,0,1.26,0,1.88,0
		c0.72-0.01,0.59,0.1,0.62-0.63c0.01-0.26-0.03-0.39-0.35-0.39c-1.44,0.01-2.89,0.01-4.33,0C80.24,27.45,80.45,27.82,80.42,28.05z"
		/>
	<path class="path-st0" d="M80.91,38.54c-0.22,0.01-0.52-0.11-0.5,0.33c0.03,0.56,0.01,1.13,0.01,1.69c0,0.54,0.02,1.09-0.01,1.65
		c-0.02,0.38,0.21,0.36,0.45,0.33c0.22-0.02,0.56,0.16,0.55-0.32c-0.02-1.11-0.02-2.23,0-3.34C81.42,38.45,81.14,38.54,80.91,38.54z
		"/>
	<path class="path-st0" d="M80.75,34.52c1.45-0.02,2.89-0.02,4.34,0c0.37,0.01,0.38-0.18,0.34-0.43c-0.03-0.23,0.21-0.61-0.32-0.6
		c-0.71,0.01-1.41,0-2.12,0c-0.74,0-1.48,0.02-2.22,0c-0.51-0.02-0.33,0.34-0.35,0.58C80.39,34.31,80.36,34.53,80.75,34.52z"/>
	<path class="path-st0" d="M85.11,29.47c-0.71,0.03-1.41,0.01-2.12,0.01c-0.75,0-1.51,0.01-2.26-0.01c-0.41-0.01-0.31,0.27-0.3,0.48
		c0.01,0.21-0.14,0.52,0.31,0.52c1.46-0.01,2.92-0.02,4.38,0c0.49,0.01,0.3-0.33,0.32-0.55C85.46,29.7,85.51,29.45,85.11,29.47z"/>
	<path class="path-st0" d="M80.76,32.5c0.72-0.01,1.45,0,2.17,0c0.72,0,1.45-0.02,2.16,0c0.52,0.02,0.31-0.35,0.34-0.58
		c0.03-0.23,0.06-0.46-0.33-0.45c-1.44,0.02-2.89,0.02-4.33,0c-0.37-0.01-0.39,0.18-0.35,0.43C80.45,32.14,80.25,32.51,80.76,32.5z"
		/>
	<path class="path-st0" d="M76.84,36.51c-0.28-0.03-0.47,0-0.46,0.38c0.03,0.87,0.01,1.75,0.01,2.63c0,0.89,0.02,1.79-0.01,2.69
		c-0.02,0.44,0.26,0.35,0.49,0.34c0.24-0.01,0.54,0.12,0.54-0.35c-0.02-1.77-0.02-3.55,0-5.32C77.42,36.39,77.09,36.53,76.84,36.51z
		"/>
	<path class="path-st0" d="M76.72,28.47c0.67-0.03,1.35-0.01,2.02-0.01c0.71,0,0.69,0,0.67-0.71c-0.01-0.26-0.11-0.31-0.34-0.3
		c-0.39,0.01-0.78,0-1.17,0c-0.39,0-0.78,0.02-1.18-0.01c-0.42-0.02-0.34,0.27-0.33,0.5C76.4,28.16,76.24,28.49,76.72,28.47z"/>
	<path class="path-st0" d="M82.84,38.55c-0.21-0.04-0.44-0.06-0.42,0.3c0.03,0.56,0.01,1.13,0.01,1.69s0.01,1.13,0,1.7
		c-0.02,0.35,0.21,0.33,0.42,0.3c0.21-0.03,0.59,0.2,0.59-0.28c0-1.14,0.01-2.29,0-3.43C83.43,38.35,83.06,38.59,82.84,38.55z"/>
	<path class="path-st0" d="M85.08,39.52c-0.23,0.05-0.63-0.22-0.64,0.28c-0.01,0.81-0.02,1.63,0,2.44c0.01,0.51,0.41,0.23,0.64,0.28
		c0.22,0.06,0.39,0.01,0.37-0.3c-0.03-0.39-0.01-0.78-0.01-1.17c0-0.4-0.01-0.81,0.02-1.22C85.47,39.52,85.3,39.47,85.08,39.52z"/>
	<g>
		<path class="path-st0" d="M39.69,37.51c-0.38,0.03-0.76,0.04-1.13,0c-0.45-0.05-0.6,0.08-0.57,0.55c0.02,0.35,0.08,0.53,0.47,0.47
			c0.17-0.02,0.35,0,0.52,0c0.23,0,0.47-0.01,0.7,0c0.48,0.02,0.3-0.33,0.32-0.56C40.02,37.76,40.09,37.48,39.69,37.51z"/>
		<path class="path-st0" d="M40.55,30.12c0.13,0.2,0.26,0.28,0.5,0.22c0.8-0.22,1.6-0.43,2.41-0.61c0.3-0.06,0.3-0.17,0.17-0.4
			c-0.69-1.21-1.73-1.81-3.1-1.88c-0.41,0.03-0.81,0.09-1.21,0.22c-0.27,0.08-0.29,0.19-0.13,0.42
			C39.66,28.75,40.11,29.43,40.55,30.12z"/>
		<path class="path-st0" d="M43.72,37.5c-0.67,0.03-1.35,0.01-2.02,0.01c-0.71,0-0.69,0-0.67,0.71c0.01,0.27,0.12,0.32,0.34,0.31
			c0.39-0.01,0.78,0,1.17,0s0.78-0.02,1.18-0.01c0.43,0.03,0.34-0.26,0.33-0.49C44.04,37.81,44.2,37.48,43.72,37.5z"/>
		<path class="path-st0" d="M44.04,31.06c0.07-0.33-0.02-0.46-0.45-0.33c-0.76,0.22-1.54,0.4-2.32,0.58c-0.23,0.06-0.37,0.15-0.43,0.41
			c-0.18,0.8-0.37,1.61-0.6,2.41c-0.1,0.36,0.05,0.38,0.33,0.38C42.41,34.5,43.99,32.95,44.04,31.06z"/>
		<path class="path-st0" d="M43.52,39.51c-0.31,0.04-0.63,0.01-0.94,0.01c-0.4,0-0.81,0.02-1.21-0.01c-0.52-0.02-0.3,0.36-0.33,0.59
			c-0.04,0.24-0.06,0.46,0.33,0.44c0.73-0.03,1.47-0.03,2.2,0c0.39,0.01,0.49-0.1,0.49-0.49C44.06,39.64,43.96,39.46,43.52,39.51z"
			/>
		<path class="path-st0" d="M43.7,41.54c-0.39,0.03-0.78,0.01-1.17,0.01s-0.78,0.02-1.18-0.02c-0.38-0.03-0.36,0.22-0.33,0.45
			c0.03,0.22-0.18,0.57,0.31,0.56c0.8-0.02,1.59-0.02,2.39,0c0.49,0.01,0.28-0.35,0.31-0.56C44.07,41.75,44.08,41.51,43.7,41.54z"/>
		<path class="path-st0" d="M45.7,24.43c-7.14,0-14.29,0-21.44-0.01c-0.61,0-1.07,0.17-1.34,0.74c0,6.57,0,13.14,0,19.71
			c0.28,0.54,0.72,0.7,1.32,0.7c7.18-0.01,14.36-0.01,21.54-0.01c0.95,0,1.28-0.33,1.28-1.26c0-6.17,0-12.35,0-18.52
			C47.06,24.76,46.73,24.43,45.7,24.43z M46.04,44.08c0,0.39-0.11,0.49-0.5,0.49c-7.02-0.01-14.05-0.01-21.07,0
			c-0.43,0-0.54-0.12-0.54-0.55c0.01-6.03,0.01-12.07,0-18.1c0-0.41,0.12-0.48,0.5-0.48c3.52,0.02,7.04,0.01,10.56,0.01
			c3.52,0,7.04,0,10.55-0.01c0.39,0,0.5,0.09,0.5,0.49C46.03,31.98,46.03,38.03,46.04,44.08z"/>
		<path class="path-st0" d="M39.39,39.52c-0.27,0-0.54,0.03-0.8-0.01c-0.48-0.07-0.62,0.11-0.59,0.59c0.02,0.35,0.09,0.49,0.45,0.44
			c0.18-0.02,0.37,0,0.56,0c0.22,0,0.44-0.02,0.66,0c0.26,0.02,0.36-0.07,0.36-0.34C40.04,39.52,40.05,39.52,39.39,39.52z"/>
		<path class="path-st0" d="M38.87,34.1c0.24,0.12,0.33,0.11,0.4-0.18c0.2-0.87,0.42-1.74,0.65-2.6c0.04-0.17,0.03-0.3-0.07-0.44
			c-0.55-0.82-1.1-1.64-1.67-2.5C36.35,29.97,36.74,33.02,38.87,34.1z"/>
		<path class="path-st0" d="M39.69,41.54c-0.4,0.02-0.81,0.03-1.22,0c-0.36-0.02-0.48,0.08-0.48,0.46c0,0.42,0.1,0.61,0.54,0.54
			c0.15-0.02,0.31,0,0.47,0c0.24,0,0.47-0.01,0.7,0c0.4,0.03,0.31-0.27,0.3-0.48C39.99,41.84,40.13,41.52,39.69,41.54z"/>
		<path class="path-st1" d="M34.99,13.7c-11.76,0-21.3,9.54-21.3,21.3s9.54,21.3,21.3,21.3s21.3-9.54,21.3-21.3S46.75,13.7,34.99,13.7z
			 M47.06,44.3c0,0.93-0.33,1.26-1.28,1.26c-7.18,0-14.36,0-21.54,0.01c-0.6,0-1.04-0.16-1.32-0.7c0-6.57,0-13.14,0-19.71
			c0.27-0.57,0.73-0.74,1.34-0.74c7.15,0.01,14.3,0.01,21.44,0.01c1.03,0,1.36,0.33,1.36,1.35C47.06,31.95,47.06,38.13,47.06,44.3z"
			/>
		<path class="path-st1" d="M45.54,25.44c-3.51,0.01-7.03,0.01-10.55,0.01c-3.52,0-7.04,0.01-10.56-0.01c-0.38,0-0.5,0.07-0.5,0.48
			c0.01,6.03,0.01,12.07,0,18.1c0,0.43,0.11,0.55,0.54,0.55c7.02-0.01,14.05-0.01,21.07,0c0.39,0,0.5-0.1,0.5-0.49
			c-0.01-6.05-0.01-12.1,0-18.15C46.04,25.53,45.93,25.44,45.54,25.44z M39.32,27.67c0.4-0.13,0.8-0.19,1.21-0.22
			c1.37,0.07,2.41,0.67,3.1,1.88c0.13,0.23,0.13,0.34-0.17,0.4c-0.81,0.18-1.61,0.39-2.41,0.61c-0.24,0.06-0.37-0.02-0.5-0.22
			c-0.44-0.69-0.89-1.37-1.36-2.03C39.03,27.86,39.05,27.75,39.32,27.67z M39.68,38.53c-0.23-0.01-0.47,0-0.7,0
			c-0.17,0-0.35-0.02-0.52,0c-0.39,0.06-0.45-0.12-0.47-0.47c-0.03-0.47,0.12-0.6,0.57-0.55c0.37,0.04,0.75,0.03,1.13,0
			c0.4-0.03,0.33,0.25,0.31,0.46C39.98,38.2,40.16,38.55,39.68,38.53z M34.99,29.92c-0.02,0.22,0.17,0.56-0.32,0.55
			c-1.46-0.02-2.92-0.01-4.38,0c-0.45,0-0.3-0.31-0.31-0.52c-0.01-0.21-0.11-0.49,0.3-0.48c0.75,0.02,1.51,0.01,2.26,0.01
			c0.71,0,1.41,0.02,2.12-0.01C35.06,29.45,35.01,29.7,34.99,29.92z M29.97,31.9c-0.04-0.25-0.02-0.44,0.35-0.43
			c1.44,0.02,2.89,0.02,4.33,0c0.39-0.01,0.36,0.22,0.33,0.45c-0.03,0.23,0.18,0.6-0.34,0.58c-0.71-0.02-1.44,0-2.16,0
			c-0.72,0-1.45-0.01-2.17,0C29.8,32.51,30,32.14,29.97,31.9z M26.27,27.44c0.4,0.03,0.79,0.01,1.18,0.01c0.39,0,0.78,0.01,1.17,0
			c0.23-0.01,0.33,0.04,0.34,0.3c0.02,0.71,0.04,0.71-0.67,0.71c-0.67,0-1.35-0.02-2.02,0.01c-0.48,0.02-0.32-0.31-0.33-0.53
			C25.93,27.71,25.85,27.42,26.27,27.44z M26.96,42.2c0,0.47-0.3,0.34-0.54,0.35c-0.23,0.01-0.51,0.1-0.49-0.34
			c0.03-0.9,0.01-1.8,0.01-2.69c0-0.88,0.02-1.76-0.01-2.63c-0.01-0.38,0.18-0.41,0.46-0.38c0.25,0.02,0.58-0.12,0.57,0.37
			C26.94,38.65,26.94,40.43,26.96,42.2z M28.43,42.55c-0.39-0.01-0.52-0.12-0.49-0.51c0.03-0.39,0.02-0.78,0-1.18
			c-0.01-0.23,0.05-0.33,0.31-0.34c0.71-0.02,0.71-0.04,0.71,0.68c0,0.12,0,0.23,0,0.34c0,0.16-0.02,0.32,0,0.47
			C29.03,42.45,28.85,42.56,28.43,42.55z M28.33,34.49c-0.31,0.02-0.6,0.01-0.9,0.01c-0.41,0-0.81-0.01-1.22,0
			c-0.2,0.01-0.26-0.07-0.27-0.27c-0.05-0.75-0.06-0.75,0.69-0.75c0.66,0,1.31,0.01,1.97-0.01c0.29-0.01,0.38,0.09,0.37,0.38
			C28.94,34.64,29.05,34.48,28.33,34.49z M26.29,31.48c0.39,0.03,0.78,0,1.17,0s0.78,0.01,1.17,0c0.23-0.01,0.32,0.05,0.33,0.31
			c0.01,0.71,0.03,0.71-0.68,0.71c-0.66,0-1.31-0.02-1.97,0.01c-0.49,0.02-0.36-0.31-0.37-0.56C25.93,31.71,25.86,31.44,26.29,31.48
			z M28.7,30.47c-0.41,0.01-0.84,0-1.26,0c-0.41,0-0.81-0.01-1.22,0c-0.42,0.01-0.28-0.3-0.27-0.49c0-0.19-0.16-0.5,0.26-0.5
			c0.83,0.01,1.66,0.01,2.48,0c0.35,0,0.28,0.25,0.25,0.42C28.9,30.1,29.15,30.45,28.7,30.47z M30.31,27.45
			c1.44,0.01,2.89,0.01,4.33,0c0.32,0,0.36,0.13,0.35,0.39c-0.03,0.73,0.1,0.62-0.62,0.63c-0.62,0-1.25,0-1.88,0
			c-0.72,0-1.45-0.02-2.17,0.01c-0.37,0.01-0.39-0.18-0.35-0.43C30,27.82,29.79,27.45,30.31,27.45z M30.32,33.49
			c0.74,0.02,1.48,0,2.22,0c0.71,0,1.41,0.01,2.12,0c0.53-0.01,0.29,0.37,0.32,0.6c0.04,0.25,0.03,0.44-0.34,0.43
			c-1.45-0.02-2.89-0.02-4.34,0c-0.39,0.01-0.36-0.21-0.33-0.45C29.99,33.83,29.81,33.47,30.32,33.49z M30.96,42.22
			c0.01,0.48-0.33,0.3-0.55,0.32c-0.24,0.03-0.47,0.05-0.45-0.33c0.03-0.56,0.01-1.11,0.01-1.65c0-0.56,0.02-1.13-0.01-1.69
			c-0.02-0.44,0.28-0.32,0.5-0.33c0.23,0,0.51-0.09,0.5,0.34C30.94,39.99,30.94,41.11,30.96,42.22z M32.99,42.26
			c0,0.48-0.38,0.25-0.59,0.28c-0.21,0.03-0.44,0.05-0.42-0.3c0.01-0.57,0-1.14,0-1.7s0.02-1.13-0.01-1.69
			c-0.02-0.36,0.21-0.34,0.42-0.3c0.22,0.04,0.59-0.2,0.6,0.28C33,39.97,32.99,41.12,32.99,42.26z M34.99,41.05
			c0,0.39-0.02,0.78,0.01,1.17c0.02,0.31-0.15,0.36-0.37,0.3c-0.23-0.05-0.63,0.23-0.64-0.28c-0.02-0.81-0.01-1.63,0-2.44
			c0.01-0.5,0.41-0.23,0.64-0.28c0.22-0.05,0.39,0,0.38,0.31C34.98,40.24,34.99,40.65,34.99,41.05z M38.18,28.38
			c0.57,0.86,1.12,1.68,1.67,2.5c0.1,0.14,0.11,0.27,0.07,0.44c-0.23,0.86-0.45,1.73-0.65,2.6c-0.07,0.29-0.16,0.3-0.4,0.18
			C36.74,33.02,36.35,29.97,38.18,28.38z M39.7,42.54c-0.23-0.01-0.46,0-0.7,0c-0.16,0-0.32-0.02-0.47,0
			c-0.44,0.07-0.54-0.12-0.54-0.54c0-0.38,0.12-0.48,0.48-0.46c0.41,0.03,0.82,0.02,1.22,0c0.44-0.02,0.3,0.3,0.31,0.52
			C40.01,42.27,40.1,42.57,39.7,42.54z M40.03,40.2c0,0.27-0.1,0.36-0.36,0.34c-0.22-0.02-0.44,0-0.66,0c-0.19,0-0.38-0.02-0.56,0
			c-0.36,0.05-0.43-0.09-0.45-0.44c-0.03-0.48,0.11-0.66,0.59-0.59c0.26,0.04,0.53,0.01,0.8,0.01
			C40.05,39.52,40.04,39.52,40.03,40.2z M40.24,34.13c0.23-0.8,0.42-1.61,0.6-2.41c0.06-0.26,0.2-0.35,0.43-0.41
			c0.78-0.18,1.56-0.36,2.32-0.58c0.43-0.13,0.52,0,0.45,0.33c-0.05,1.89-1.63,3.44-3.47,3.45C40.29,34.51,40.14,34.49,40.24,34.13z
			 M43.72,42.54c-0.8-0.02-1.59-0.02-2.39,0c-0.49,0.01-0.28-0.34-0.31-0.56c-0.03-0.23-0.05-0.48,0.33-0.45
			c0.4,0.04,0.79,0.02,1.18,0.02s0.78,0.02,1.17-0.01c0.38-0.03,0.37,0.21,0.33,0.44C44,42.19,44.21,42.55,43.72,42.54z
			 M43.57,40.54c-0.73-0.03-1.47-0.03-2.2,0c-0.39,0.02-0.37-0.2-0.33-0.44c0.03-0.23-0.19-0.61,0.33-0.59
			c0.4,0.03,0.81,0.01,1.21,0.01c0.31,0,0.63,0.03,0.94-0.01c0.44-0.05,0.54,0.13,0.54,0.54C44.06,40.44,43.96,40.55,43.57,40.54z
			 M43.72,38.52c-0.4-0.01-0.79,0.01-1.18,0.01s-0.78-0.01-1.17,0c-0.22,0.01-0.33-0.04-0.34-0.31c-0.02-0.71-0.04-0.71,0.67-0.71
			c0.67,0,1.35,0.02,2.02-0.01c0.48-0.02,0.32,0.31,0.33,0.53C44.06,38.26,44.15,38.55,43.72,38.52z"/>
	</g>
</g>
</svg>
