<?xml version="1.0" encoding="utf-8"?>
<!-- Generator: Adobe Illustrator 24.3.2, SVG Export Plug-In . SVG Version: 6.00 Build 0)  -->
<svg version="1.1" id="Layer_1" xmlns="http://www.w3.org/2000/svg" xmlns:xlink="http://www.w3.org/1999/xlink" x="0px" y="0px"
	 viewBox="0 0 68.43 68.43" style="enable-background:new 0 0 68.43 68.43;" xml:space="preserve">
<style type="text/css">
	.st0{fill:#05B795;}
</style>
<g id="vEjTtj_1_">
	<g>
		<g>
			<g>
				<path class="st0" d="M45.22,33.57c-0.06,5.39-4.42,9.72-9.74,9.66c-5.38-0.06-9.7-4.43-9.63-9.76c0.06-5.42,4.43-9.69,9.85-9.63
					C40.94,23.9,45.28,28.33,45.22,33.57z M37.87,34.71c0.54,0.69,0.88,1.74,0.93,2.75c0.02,0.55,0.35,0.9,0.81,0.87
					c0.48-0.02,0.77-0.41,0.73-0.97c-0.03-0.48-0.11-0.95-0.22-1.41c-0.5-2.08-2.13-4.02-4.85-3.88c-1.08,0.06-2.02,0.43-2.8,1.15
					c-1.22,1.13-1.65,2.61-1.76,4.21c-0.03,0.51,0.27,0.86,0.72,0.89c0.46,0.03,0.79-0.31,0.82-0.83c0.04-0.73,0.19-1.43,0.51-2.09
					c0.11-0.23,0.22-0.46,0.42-0.71c0,1.01,0,1.94,0,2.88c0,0.16,0.02,0.25,0.22,0.24c1.42-0.01,2.85-0.01,4.27,0
					c0.19,0,0.22-0.08,0.22-0.25c-0.01-0.47-0.01-0.94-0.01-1.4C37.87,35.71,37.87,35.24,37.87,34.71z M35.51,31.55
					c1.06,0.01,1.92-0.83,1.93-1.89c0.01-1.06-0.82-1.92-1.86-1.93c-1.09-0.01-1.95,0.82-1.97,1.89
					C33.6,30.67,34.44,31.54,35.51,31.55z"/>
				<path class="st0" d="M35.53,16.98c-2.17-0.02-3.89-1.75-3.88-3.89c0.02-2.18,1.76-3.86,3.98-3.85c2.07,0.01,3.8,1.8,3.78,3.9
					C39.39,15.26,37.63,17,35.53,16.98z M34.57,13.12c0,0.53,0.44,0.96,0.97,0.95c0.53-0.01,0.97-0.45,0.96-0.97
					c-0.01-0.52-0.46-0.96-0.98-0.96C34.99,12.14,34.56,12.59,34.57,13.12z"/>
				<path class="st0" d="M35.51,51.42c2.09-0.03,3.86,1.7,3.89,3.83c0.04,2.08-1.69,3.89-3.74,3.92c-2.23,0.04-3.99-1.65-4.02-3.84
					C31.62,53.19,33.34,51.46,35.51,51.42z M35.53,56.26c0.54-0.01,0.98-0.46,0.96-1c-0.01-0.5-0.47-0.94-0.97-0.93
					c-0.53,0-0.96,0.45-0.95,0.98C34.58,55.85,35,56.27,35.53,56.26z"/>
				<path class="st0" d="M17.31,19.76c2.09-0.02,3.84,1.71,3.87,3.81c0.02,2.16-1.69,3.92-3.83,3.94c-2.15,0.02-3.9-1.71-3.91-3.86
					C13.42,21.5,15.14,19.77,17.31,19.76z M17.31,24.6c0.53,0,0.97-0.43,0.97-0.96c0-0.52-0.45-0.97-0.97-0.97
					c-0.52,0-0.96,0.44-0.96,0.97S16.77,24.6,17.31,24.6z"/>
				<path class="st0" d="M53.83,19.76c2.21,0.09,3.88,1.87,3.8,4.04c-0.09,2.13-1.93,3.81-4.06,3.72c-2.1-0.1-3.79-1.93-3.69-4
					C49.97,21.36,51.75,19.67,53.83,19.76z M54.71,23.63c0-0.54-0.44-0.97-0.97-0.96c-0.52,0.01-0.95,0.43-0.95,0.95
					c0,0.54,0.42,0.97,0.96,0.97C54.28,24.59,54.71,24.17,54.71,23.63z"/>
				<path class="st0" d="M53.77,48.35c-2.12,0.02-3.88-1.72-3.91-3.85c-0.02-2.14,1.72-3.9,3.87-3.91c2.12-0.01,3.87,1.71,3.89,3.83
					C57.65,46.57,55.92,48.33,53.77,48.35z M53.74,45.43c0.55,0,0.96-0.41,0.97-0.95c0-0.53-0.43-0.97-0.96-0.97
					c-0.54-0.01-0.98,0.44-0.97,0.99C52.79,45.01,53.22,45.43,53.74,45.43z"/>
				<path class="st0" d="M21.18,44.49c0,2.13-1.75,3.86-3.88,3.86c-2.16-0.01-3.87-1.74-3.86-3.91c0.01-2.13,1.76-3.86,3.9-3.85
					C19.46,40.61,21.18,42.35,21.18,44.49z M17.34,45.43c0.52-0.01,0.95-0.44,0.94-0.96c0-0.53-0.45-0.97-0.97-0.97
					c-0.54,0-0.98,0.46-0.97,1C16.36,45.03,16.79,45.44,17.34,45.43z"/>
				<path class="st0" d="M40.09,53.35c-0.08,0.01-0.09-0.05-0.11-0.09c-0.15-0.33-0.34-0.64-0.56-0.93
					c-0.13-0.18,0.04-0.2,0.12-0.24c1-0.58,2.01-1.17,3.01-1.75c2.16-1.25,4.32-2.49,6.48-3.75c0.19-0.11,0.27-0.1,0.36,0.11
					c0.11,0.26,0.26,0.51,0.45,0.72c0.14,0.16,0.12,0.24-0.06,0.34c-1.14,0.65-2.27,1.3-3.4,1.95c-2.03,1.17-4.07,2.35-6.1,3.53
					C40.22,53.28,40.15,53.32,40.09,53.35z"/>
				<path class="st0" d="M31.69,52.25c-0.03,0.05-0.07,0.09-0.1,0.14c-0.17,0.24-0.34,0.48-0.45,0.75
					c-0.08,0.21-0.17,0.23-0.36,0.12c-1.05-0.62-2.11-1.23-3.16-1.83c-2.09-1.2-4.17-2.41-6.26-3.6c-0.23-0.13-0.32-0.22-0.1-0.46
					c0.17-0.18,0.29-0.42,0.4-0.64c0.1-0.22,0.19-0.22,0.39-0.11c1.93,1.12,3.86,2.24,5.8,3.36c1.22,0.7,2.43,1.4,3.65,2.11
					C31.55,52.12,31.66,52.14,31.69,52.25z"/>
				<path class="st0" d="M18,34.04c0,1.74,0,3.49,0.01,5.23c0,0.27-0.03,0.4-0.34,0.33c-0.25-0.06-0.53-0.05-0.79,0.01
					c-0.22,0.05-0.26-0.04-0.26-0.24c0.01-1.89,0-3.78,0-5.67c0-1.63,0.01-3.26,0-4.88c0-0.27,0.07-0.33,0.33-0.31
					c0.26,0.03,0.53,0.03,0.79,0c0.24-0.03,0.27,0.07,0.27,0.27c-0.01,1.42,0,2.85,0,4.27C18,33.37,18,33.71,18,34.04L18,34.04z"/>
				<path class="st0" d="M31.63,16.08c-0.01,0.13-0.13,0.14-0.21,0.18c-1.75,1.02-3.51,2.03-5.26,3.04
					c-1.36,0.78-2.72,1.57-4.07,2.36c-0.18,0.1-0.27,0.12-0.36-0.1c-0.11-0.26-0.25-0.51-0.42-0.73c-0.15-0.19-0.1-0.26,0.09-0.36
					c1.78-1.02,3.56-2.05,5.34-3.08c1.32-0.76,2.63-1.52,3.94-2.29c0.22-0.13,0.34-0.16,0.44,0.13c0.09,0.26,0.25,0.48,0.41,0.7
					C31.57,15.99,31.6,16.04,31.63,16.08z"/>
				<path class="st0" d="M49.16,21.77c-0.06-0.03-0.12-0.06-0.18-0.1c-3.12-1.8-6.25-3.61-9.37-5.41c-0.17-0.1-0.23-0.17-0.09-0.34
					c0.19-0.23,0.33-0.48,0.44-0.76c0.07-0.18,0.15-0.2,0.32-0.1c1.73,1.01,3.47,2.01,5.21,3.02c1.38,0.8,2.77,1.6,4.16,2.39
					c0.18,0.11,0.24,0.18,0.09,0.36c-0.19,0.23-0.33,0.51-0.45,0.78C49.26,21.67,49.25,21.75,49.16,21.77z"/>
				<path class="st0" d="M53.06,34.04c0-1.75,0.01-3.49-0.01-5.24c0-0.26,0.06-0.34,0.33-0.3c0.26,0.03,0.53,0.02,0.79,0
					c0.21-0.02,0.26,0.05,0.26,0.25c-0.01,1.19,0,2.38,0,3.57c0,2.32,0,4.64,0,6.96c0,0.25-0.03,0.37-0.33,0.31
					c-0.25-0.06-0.53-0.05-0.79,0.01c-0.22,0.05-0.26-0.03-0.26-0.23C53.07,37.59,53.06,35.82,53.06,34.04L53.06,34.04z"/>
				<path class="st0" d="M34.89,47.31c0-0.93,0.01-1.85,0-2.78c0-0.22,0.04-0.32,0.29-0.29c0.28,0.03,0.57,0.01,0.85-0.01
					c0.17-0.01,0.25,0.03,0.25,0.22c-0.01,1.88-0.01,3.76,0,5.64c0,0.2-0.07,0.25-0.26,0.24c-0.28-0.01-0.57-0.02-0.85,0
					c-0.23,0.02-0.28-0.07-0.28-0.28C34.89,49.14,34.88,48.23,34.89,47.31C34.88,47.31,34.89,47.31,34.89,47.31z"/>
				<path class="st0" d="M21.98,42.77c-0.09,0.02-0.1-0.04-0.12-0.1c-0.14-0.33-0.29-0.66-0.51-0.95c-0.11-0.15,0.02-0.18,0.1-0.23
					c1.07-0.62,2.14-1.24,3.21-1.86c0.44-0.25,0.88-0.5,1.31-0.76c0.14-0.09,0.22-0.1,0.32,0.07c0.16,0.28,0.34,0.54,0.52,0.81
					c0.07,0.11,0.1,0.17-0.03,0.25c-1.58,0.91-3.16,1.82-4.73,2.73C22.03,42.75,22,42.76,21.98,42.77z"/>
				<path class="st0" d="M49.78,41.6c-0.03,0.05-0.06,0.09-0.09,0.13c-0.18,0.26-0.33,0.53-0.45,0.82c-0.06,0.17-0.13,0.2-0.3,0.1
					c-0.92-0.54-1.85-1.07-2.78-1.61c-0.61-0.35-1.21-0.71-1.82-1.05c-0.15-0.09-0.19-0.15-0.07-0.31c0.19-0.26,0.36-0.54,0.52-0.81
					c0.07-0.12,0.13-0.14,0.25-0.07c1.53,0.89,3.07,1.77,4.6,2.66C49.71,41.5,49.77,41.53,49.78,41.6z"/>
				<path class="st0" d="M49.85,26.61c0,0.09-0.07,0.11-0.11,0.13c-1.41,0.81-2.82,1.62-4.22,2.44c-0.12,0.07-0.18,0.05-0.24-0.08
					c-0.14-0.3-0.29-0.59-0.45-0.88c-0.08-0.14-0.05-0.2,0.08-0.27c1.38-0.79,2.75-1.58,4.12-2.38c0.09-0.05,0.18-0.13,0.25,0.04
					c0.14,0.32,0.32,0.62,0.52,0.91C49.82,26.55,49.83,26.59,49.85,26.61z"/>
				<path class="st0" d="M26.31,28.07c-0.02,0.04-0.05,0.09-0.08,0.14c-0.14,0.27-0.29,0.53-0.41,0.81
					c-0.07,0.15-0.12,0.21-0.3,0.11c-1.38-0.81-2.77-1.6-4.15-2.4c-0.12-0.07-0.18-0.13-0.08-0.27c0.19-0.26,0.35-0.54,0.48-0.84
					c0.06-0.14,0.13-0.18,0.29-0.09c1.37,0.8,2.75,1.59,4.12,2.39C26.24,27.95,26.32,27.97,26.31,28.07z"/>
				<path class="st0" d="M36.26,20.4c0,0.73,0,1.46,0,2.19c0,0.19-0.06,0.25-0.25,0.24c-0.28-0.02-0.57-0.02-0.85,0
					c-0.22,0.02-0.29-0.05-0.28-0.27c0.01-0.98,0.01-1.97,0.01-2.95c0-0.47,0-0.94,0-1.4c0-0.17,0.03-0.26,0.23-0.23
					c0.3,0.05,0.6,0.05,0.9,0c0.2-0.03,0.25,0.04,0.25,0.23C36.25,18.94,36.26,19.67,36.26,20.4z"/>
			</g>
		</g>
	</g>
</g>
</svg>
