<?xml version="1.0" encoding="utf-8"?>
<!-- Generator: Adobe Illustrator 24.3.2, SVG Export Plug-In . SVG Version: 6.00 Build 0)  -->
<svg version="1.1" id="Layer_1" xmlns="http://www.w3.org/2000/svg" xmlns:xlink="http://www.w3.org/1999/xlink" x="0px" y="0px"
	 viewBox="0 0 68.43 68.43" style="enable-background:new 0 0 68.43 68.43;" xml:space="preserve">
<style type="text/css">
	.st0{fill:#FFFFFF;}
</style>
<g>
	<path class="st0" d="M17.42,49.22c0-1.17-0.01-2.34,0.01-3.51c0.01-0.54-0.16-0.98-0.55-1.36c-0.46-0.44-0.84-0.95-1.06-1.55
		c-0.58-1.6-0.28-3.05,0.88-4.26c0.56-0.59,0.77-1.2,0.74-1.99c-0.05-1.11-0.02-2.22-0.01-3.33c0.01-0.54-0.15-0.97-0.54-1.37
		c-1.81-1.86-1.84-4.06-0.08-5.96c0.44-0.48,0.64-0.97,0.62-1.62c-0.03-0.94,0.01-1.88,0.03-2.82c0-0.17-0.04-0.29-0.15-0.42
		c-1.59-1.89-1.29-4.11,0.62-5.8c1.5-1.33,3.3-2.09,5.18-2.65c4.44-1.32,8.99-1.59,13.59-1.24c2.64,0.2,5.23,0.64,7.73,1.52
		c1.46,0.51,2.86,1.15,4.07,2.14c0.49,0.4,0.93,0.86,1.28,1.39c0.9,1.41,0.85,2.99-0.17,4.36c-0.25,0.34-0.37,0.65-0.34,1.09
		c0.05,0.84,0.03,1.69,0.01,2.54c-0.02,0.58,0.16,1.03,0.57,1.45c1,1.02,1.54,2.22,1.28,3.68c-0.17,0.95-0.67,1.72-1.34,2.38
		c-0.36,0.35-0.51,0.75-0.5,1.24c0.01,1.29,0.01,2.59,0,3.88c-0.01,0.51,0.17,0.92,0.53,1.28c0.64,0.64,1.14,1.39,1.3,2.3
		c0.25,1.41-0.19,2.63-1.17,3.63c-0.5,0.51-0.67,1.05-0.67,1.74c0.03,2.2-0.01,4.41,0.02,6.61c0.01,0.86-0.28,1.56-0.85,2.18
		c-1.08,1.18-2.48,1.85-3.95,2.4c-2.53,0.95-5.16,1.4-7.85,1.62c-4.08,0.33-8.13,0.1-12.11-0.89c-1.69-0.42-3.33-1-4.83-1.94
		c-0.56-0.35-1.08-0.77-1.51-1.27c-0.51-0.59-0.79-1.26-0.77-2.07C17.44,51.47,17.42,50.34,17.42,49.22z M38.12,23.21
		c0.78,0.01,1.52-0.2,2.27-0.36c1.65-0.34,3.27-0.78,4.8-1.49c0.95-0.44,1.87-0.95,2.54-1.79c0.62-0.78,0.6-1.5-0.03-2.26
		c-0.49-0.59-1.11-1.01-1.78-1.37c-1.89-1.02-3.94-1.58-6.04-1.95c-4.18-0.73-8.37-0.75-12.55-0.09c-2.27,0.36-4.49,0.93-6.54,2.03
		c-0.71,0.38-1.37,0.83-1.87,1.48c-0.54,0.7-0.54,1.37-0.03,2.08c0.4,0.55,0.93,0.94,1.49,1.29c1.9,1.16,4.02,1.73,6.16,2.15
		c1.6,0.32,3.23,0.51,4.88,0.55c1.06,0.02,2.12-0.02,3.18,0.04c0.39,0.03,0.79-0.02,1.19-0.06C36.57,23.39,37.35,23.29,38.12,23.21z
		 M30.23,53.6c2.64-0.05,4.91-0.99,6.7-2.94c1.94-2.12,2.79-4.61,2.32-7.49c-0.22-1.36-0.78-2.63-1.37-3.86
		c-2.01-4.16-4.61-7.96-7.34-11.67c-0.31-0.42-0.32-0.42-0.63,0c-2.14,2.89-4.16,5.85-5.93,8.98c-1.06,1.88-2.04,3.79-2.64,5.87
		c-0.36,1.24-0.38,2.47-0.12,3.73C22.13,50.52,25.94,53.66,30.23,53.6z"/>
	<path class="st0" d="M24.69,20.25c-0.54-0.01-1.3-0.19-1.94-0.69c-0.86-0.67-0.87-1.66-0.03-2.35c1.17-0.95,3.42-0.94,4.58,0.02
		c0.8,0.67,0.8,1.62-0.01,2.29C26.71,20,25.87,20.26,24.69,20.25z"/>
	<path class="st0" d="M23.15,44.57c-0.08-0.8,0.23-1.51,0.46-2.24c0.64-1.97,1.64-3.78,2.68-5.56c1.14-1.94,2.38-3.82,3.67-5.66
		c0.18-0.26,0.29-0.34,0.52-0.02c2.05,2.97,4.03,5.98,5.58,9.25c0.48,1.02,0.93,2.05,1.14,3.16c0.54,2.8-1.08,5.91-3.76,7.25
		c-4.37,2.19-9.53-0.5-10.23-5.34C23.17,45.12,23.17,44.85,23.15,44.57z M28.78,38.54c-0.12,0.03-0.17,0.02-0.21,0.05
		c-0.1,0.07-0.2,0.14-0.3,0.22c-1.06,0.86-1.83,1.94-2.38,3.19c-0.93,2.1-0.55,3.98,0.94,5.65c1.28,1.45,2.84,2.14,4.79,1.56
		c0.23-0.07,0.52-0.12,0.58-0.39c0.06-0.31-0.21-0.46-0.41-0.61c-0.72-0.54-1.53-0.93-2.35-1.28c-0.73-0.32-1.21-0.85-1.45-1.58
		c-0.56-1.69-0.44-3.37,0.14-5.03C28.34,39.73,28.55,39.16,28.78,38.54z"/>
</g>
</svg>
