<?xml version="1.0" encoding="utf-8"?>
<!-- Generator: Adobe Illustrator 24.3.2, SVG Export Plug-In . SVG Version: 6.00 Build 0)  -->
<svg version="1.1" id="Layer_1" xmlns="http://www.w3.org/2000/svg" xmlns:xlink="http://www.w3.org/1999/xlink" x="0px" y="0px"
	 viewBox="0 0 68.43 68.43" style="enable-background:new 0 0 68.43 68.43;" xml:space="preserve">
<style type="text/css">
	.path-st0{fill:#FFFFFF;}
	.path-st1{fill:#05B795;}
</style>
<g>
	<path class="path-st1" d="M41.99,26.13c-0.97,0.01-1.94,0.01-2.9,0c-0.36,0-0.48-0.12-0.48-0.48c0-0.99,0-1.97,0-2.96
		c0-0.13-0.03-0.17-0.16-0.17c-4.02,0-8.04,0-12.06,0c-0.13,0-0.17,0.04-0.17,0.17c0.01,0.43,0.01,0.86,0,1.28
		c-0.01,0.18,0.05,0.22,0.22,0.22c3.32-0.01,6.64,0,9.96-0.01c0.22,0,0.39,0.06,0.54,0.22c1.12,1.13,2.24,2.25,3.37,3.37
		c0.17,0.17,0.24,0.34,0.23,0.58c-0.01,4.56,0,9.12-0.01,13.68c0,0.16,0.03,0.22,0.2,0.21c0.41-0.01,0.82,0,1.23,0
		c0.24,0,0.24,0,0.24-0.24c0.01-2.59,0.01-5.2,0.01-7.8c0-2.61,0-5.23,0-7.84C42.21,26.19,42.18,26.13,41.99,26.13z"/>
	<path class="path-st1" d="M39.59,28.54c-0.97,0.01-1.95,0-2.92,0c-0.34,0-0.47-0.13-0.47-0.47c0-0.97-0.01-1.94,0-2.9
		c0-0.18-0.04-0.24-0.23-0.24c-3.97,0.01-7.94,0-11.92,0.01c-0.25,0-0.24-0.06-0.24,0.25C23.8,28.4,23.8,31.6,23.8,34.8
		c0,3.22,0,6.43,0,9.65c0,0.16,0.03,0.22,0.21,0.22c5.2,0,10.39,0,15.59,0c0.17,0,0.2-0.05,0.2-0.21c0-5.23,0-10.46,0-15.7
		C39.8,28.6,39.77,28.54,39.59,28.54z M25.81,35.33c0.06,0,0.12,0,0.19,0c1.93,0,3.86,0,5.79,0c1.93,0,3.86,0,5.79,0
		c0.07,0,0.14,0,0.2,0c0.19,0.02,0.33,0.17,0.34,0.36s-0.13,0.36-0.33,0.38c-0.06,0.01-0.12,0-0.19,0c-3.88,0-7.76,0-11.63,0
		c-0.06,0-0.11,0-0.17,0c-0.2-0.02-0.34-0.18-0.34-0.38C25.46,35.5,25.61,35.34,25.81,35.33z M25.47,32.89
		c-0.01-0.18,0.13-0.35,0.32-0.38c0.06-0.01,0.12-0.01,0.19-0.01c3.89,0,7.78,0,11.67,0c0.13,0,0.25,0,0.35,0.09
		c0.12,0.1,0.16,0.23,0.12,0.39c-0.05,0.16-0.15,0.25-0.32,0.27c-0.06,0.01-0.12,0-0.19,0c-1.94,0-3.87,0-5.81,0
		c-1.92,0-3.85,0-5.77,0c-0.07,0-0.14,0-0.2,0C25.63,33.24,25.48,33.09,25.47,32.89z M38.12,38.48c0.02,0.19-0.1,0.35-0.29,0.39
		c-0.07,0.01-0.14,0.01-0.2,0.01c-3.88,0-7.77,0-11.65,0c-0.03,0-0.06,0-0.09,0c-0.25-0.01-0.42-0.16-0.42-0.38
		c0-0.22,0.17-0.37,0.43-0.37c1.24,0,2.48,0,3.72,0c0.72,0.02,1.45,0.02,2.17,0.02c1.92,0,3.85,0,5.77,0c0.07,0,0.15,0,0.22,0
		C37.97,38.17,38.1,38.3,38.12,38.48z M37.81,41.72c-0.06,0.01-0.12,0.01-0.19,0.01c-1.95-0.02-3.9-0.02-5.84-0.02s-3.88,0-5.83,0
		c-0.08,0-0.17,0-0.24-0.02c-0.16-0.06-0.25-0.19-0.24-0.36c0.01-0.17,0.1-0.29,0.27-0.34c0.11-0.03,0.22-0.02,0.33-0.02
		c3.85,0,7.71,0,11.56,0c0.09,0,0.17,0,0.26,0.03c0.16,0.06,0.26,0.22,0.24,0.4C38.11,41.56,37.98,41.7,37.81,41.72z M37.85,30.41
		c-0.07,0.02-0.15,0.01-0.22,0.01c-1.95,0.01-3.89,0.01-5.83,0.01s-3.87,0-5.81,0c-0.34,0-0.52-0.12-0.52-0.37
		c-0.01-0.25,0.17-0.38,0.53-0.38c3.88,0,7.77,0,11.65,0c0.07,0,0.14,0,0.2,0.01c0.16,0.04,0.28,0.18,0.28,0.35
		C38.13,30.22,38.02,30.37,37.85,30.41z"/>
	<path class="path-st1" d="M44.39,23.71c-0.97,0.01-1.94,0-2.9,0c-0.35,0-0.47-0.12-0.47-0.47c0-0.98,0-1.96,0-2.94
		c0-0.14-0.02-0.2-0.18-0.2c-4.02,0-8.03,0-12.05,0c-0.15,0-0.17,0.05-0.17,0.18c0.01,0.41,0,0.82,0,1.23
		c0,0.29-0.04,0.26,0.26,0.26c3.32,0,6.64,0,9.96,0c0.19,0,0.34,0.06,0.48,0.2c1.13,1.14,2.27,2.28,3.41,3.41
		c0.16,0.16,0.22,0.32,0.22,0.54c0,4.52,0,9.05,0,13.57c0,0.06,0.01,0.11,0,0.17c-0.02,0.13,0.03,0.17,0.16,0.17
		c0.42-0.01,0.84,0,1.27,0c0.24,0,0.24,0,0.24-0.24c0-2.6,0-5.2,0-7.8c0-2.62,0-5.24,0-7.86C44.62,23.75,44.57,23.7,44.39,23.71z"/>
	<path class="path-st1" d="M34.21,9.06c-12.88,0-23.33,10.45-23.33,23.33c0,12.88,10.45,23.33,23.33,23.33
		c12.88,0,23.33-10.45,23.33-23.33C57.54,19.51,47.09,9.06,34.21,9.06z M45.38,40.11c0,0.33-0.13,0.46-0.46,0.46
		c-0.6,0-1.19,0-1.79,0c-0.13,0-0.17,0.04-0.17,0.17c0.01,0.59,0,1.18,0,1.77c0,0.35-0.13,0.49-0.48,0.49c-0.59,0-1.18,0-1.77,0
		c-0.13,0-0.17,0.03-0.17,0.16c0.01,0.58,0,1.17,0,1.75c0,0.38-0.12,0.5-0.5,0.5c-5.5,0-11,0-16.5,0c-0.36,0-0.49-0.13-0.49-0.5
		c0-3.36,0-6.73,0-10.11c0-3.35,0-6.7,0-10.05c0-0.45,0.11-0.55,0.55-0.55c0.56,0,1.13,0,1.69,0c0.14,0,0.18-0.03,0.18-0.17
		c-0.01-0.59,0-1.18,0-1.77c0-0.34,0.14-0.48,0.47-0.48c0.58,0,1.15-0.01,1.73,0c0.19,0,0.22-0.06,0.22-0.23
		c-0.01-0.57,0-1.14,0-1.71c0-0.34,0.13-0.48,0.47-0.48c4.31,0,8.63,0,12.94,0c0.17,0,0.31,0.05,0.43,0.18
		c1.16,1.16,2.31,2.32,3.48,3.48c0.12,0.12,0.17,0.25,0.17,0.41C45.38,28.99,45.38,34.55,45.38,40.11z"/>
</g>
</svg>
