<?xml version="1.0" encoding="utf-8"?>
<!-- Generator: Adobe Illustrator 24.3.2, SVG Export Plug-In . SVG Version: 6.00 Build 0)  -->
<svg version="1.1" id="Layer_1" xmlns="http://www.w3.org/2000/svg" xmlns:xlink="http://www.w3.org/1999/xlink" x="0px" y="0px"
	 viewBox="0 0 68.43 68.43" style="enable-background:new 0 0 68.43 68.43;" xml:space="preserve">
<style type="text/css">
	.st0{fill:#FFFFFF;}
</style>
<g id="QZCBaN_2_">
	<g>
		<g>
			<path class="st0" d="M15.95,52.83c0.04-0.18,0.07-0.37,0.12-0.55c0.1-0.38,0.25-0.74,0.44-1.08c3.92-7.1,7.85-14.2,11.77-21.31
				c0.23-0.42,0.44-0.85,0.67-1.27C29,28.53,29,28.43,29,28.34c0-4.48,0-8.95,0.01-13.43c0-0.3-0.02-0.53-0.31-0.72
				c-0.29-0.19-0.44-0.52-0.47-0.88c-0.04-0.45-0.06-0.89,0.04-1.33c0.09-0.36,0.28-0.68,0.55-0.94c0.26-0.25,0.56-0.37,0.93-0.37
				c3.61,0,7.22,0.01,10.83,0c0.51,0,0.89,0.2,1.18,0.59c0.27,0.35,0.42,0.74,0.42,1.19c0,0.23,0,0.45,0,0.68
				c0,0.53-0.24,0.94-0.68,1.23c-0.1,0.06-0.13,0.12-0.11,0.24c0.02,0.1,0.01,0.21,0.01,0.31c0,4.48,0,8.95,0,13.43
				c0,0.14,0.03,0.26,0.09,0.38c1.52,2.87,3.12,5.69,4.69,8.53c2.56,4.64,5.12,9.27,7.68,13.91c0.34,0.61,0.57,1.25,0.6,1.95
				c0.05,1.05-0.3,1.97-0.96,2.76c-0.8,0.97-1.81,1.64-3.07,1.87c-0.02,0-0.03,0.02-0.05,0.02c-10.13,0-20.26,0-30.39,0
				c-0.02-0.01-0.04-0.03-0.06-0.03c-1.74-0.4-2.97-1.43-3.71-3.05c-0.15-0.32-0.19-0.67-0.28-1C15.95,53.4,15.95,53.11,15.95,52.83
				z M35.23,56.03c4.11,0,8.22,0,12.32,0c0.3,0,0.6-0.01,0.9-0.06c1.02-0.18,1.91-0.6,2.6-1.39c0.54-0.61,0.77-1.33,0.71-2.15
				c-0.05-0.7-0.29-1.35-0.62-1.96c-2.61-4.83-5.23-9.67-7.84-14.5c-1.12-2.08-2.24-4.15-3.36-6.23c-0.03-0.06-0.04-0.13-0.04-0.19
				c0-5.18,0-10.35,0-15.53c0-0.13,0.04-0.16,0.16-0.16c0.42-0.01,0.65-0.26,0.65-0.68c0-0.22,0-0.44,0-0.66
				c-0.01-0.35-0.26-0.6-0.61-0.6c-3.27,0-6.54,0-9.8,0c-0.35,0-0.61,0.27-0.62,0.61c0,0.21,0,0.42,0,0.63
				c0,0.43,0.25,0.69,0.68,0.7c0.15,0,0.17,0.05,0.17,0.18c0,5.17,0,10.34,0,15.51c0,0.07-0.01,0.14-0.04,0.21
				c-0.25,0.46-0.49,0.93-0.74,1.39c-2.82,5.22-5.64,10.44-8.47,15.66c-0.69,1.27-1.38,2.53-2.05,3.81c-0.5,0.97-0.7,1.99-0.21,3.02
				c0.73,1.53,2.01,2.36,3.68,2.38C26.86,56.06,31.05,56.03,35.23,56.03z"/>
			<path class="st0" d="M35.46,54.76c-3.7,0-7.39,0.01-11.09-0.01c-1.34-0.01-2.38-0.64-3.09-1.75c-0.57-0.88-0.53-1.84-0.1-2.77
				c0.38-0.84,0.86-1.62,1.29-2.43c2.29-4.22,4.59-8.44,6.88-12.67c0.08-0.15,0.15-0.17,0.31-0.11c1.05,0.4,2.14,0.61,3.27,0.55
				c1.1-0.06,2.13-0.38,3.12-0.86c0.83-0.41,1.6-0.92,2.41-1.37c0.24-0.13,0.49-0.26,0.75-0.34c0.73-0.24,1.25-0.08,1.7,0.55
				c0.34,0.48,0.58,1.02,0.85,1.54c2.58,4.89,5.15,9.79,7.72,14.68c0.29,0.54,0.51,1.11,0.57,1.73c0.09,0.99-0.27,1.79-1.04,2.4
				c-0.73,0.58-1.58,0.87-2.52,0.87C42.8,54.76,39.13,54.76,35.46,54.76z M31.52,43.81c-1.07,1.37-0.64,2.94,0.24,3.72
				c1,0.89,2.45,0.93,3.45,0.11c1.04-0.84,1.32-2.26,0.66-3.4c-0.32-0.57-0.8-0.98-1.41-1.19c-0.78-0.28-1.55-0.19-2.29,0.22
				c0.42-0.96,0.28-1.7-0.41-2.19c-0.57-0.41-1.4-0.37-1.92,0.09c-0.58,0.52-0.73,1.3-0.36,1.96
				C29.78,43.67,30.48,44.18,31.52,43.81z M37.71,40.22c0.51,0,0.93-0.4,0.94-0.9c0.01-0.52-0.4-0.94-0.92-0.95
				c-0.52,0-0.94,0.41-0.94,0.93C36.79,39.81,37.2,40.22,37.71,40.22z"/>
			<path class="st0" d="M36.92,21.35c0-2.21,0-4.41,0-6.62c0-0.48,0.33-0.78,0.79-0.72c0.31,0.04,0.54,0.3,0.57,0.63
				c0,0.05,0,0.1,0,0.15c0,4.39,0,8.78,0,13.17c0,0.33-0.11,0.59-0.42,0.73c-0.44,0.19-0.93-0.14-0.94-0.63
				c-0.01-0.51,0-1.02,0-1.53C36.92,24.8,36.92,23.08,36.92,21.35z"/>
		</g>
	</g>
</g>
</svg>
